<svg xmlns="http://www.w3.org/2000/svg" xmlns:xlink="http://www.w3.org/1999/xlink" fill="none" version="1.1" width="59" height="50" viewBox="0 0 59 50"><defs><linearGradient x1="0.5" y1="1" x2="0.5" y2="0" id="master_svg0_542_023710"><stop offset="1.4285714365541935%" stop-color="#68B6FF" stop-opacity="0.5"/><stop offset="100%" stop-color="#68B6FF" stop-opacity="0.05000000074505806"/></linearGradient><filter id="master_svg1_2077_017639" filterUnits="objectBoundingBox" color-interpolation-filters="sRGB" x="-18" y="-18" width="60" height="41.599998474121094"><feFlood flood-opacity="0" result="BackgroundImageFix"/><feColorMatrix in="SourceAlpha" type="matrix" values="0 0 0 0 0 0 0 0 0 0 0 0 0 0 0 0 0 0 127 0"/><feOffset dy="0" dx="0"/><feGaussianBlur stdDeviation="2"/><feColorMatrix type="matrix" values="0 0 0 0 0.16862745583057404 0 0 0 0 0.7921568751335144 0 0 0 0 1 0 0 0 0.6000000238418579 0"/><feBlend mode="normal" in2="BackgroundImageFix" result="effect1_dropShadow"/><feColorMatrix in="SourceAlpha" type="matrix" values="0 0 0 0 0 0 0 0 0 0 0 0 0 0 0 0 0 0 127 0"/><feOffset dy="0" dx="0"/><feGaussianBlur stdDeviation="2"/><feColorMatrix type="matrix" values="0 0 0 0 0.16862745583057404 0 0 0 0 0.7921568751335144 0 0 0 0 1 0 0 0 1 0"/><feBlend mode="normal" in2="effect1_dropShadow" result="effect2_dropShadow"/><feBlend mode="normal" in="SourceGraphic" in2="effect2_dropShadow" result="shape"/><feGaussianBlur stdDeviation="0.5" result="effect3_foregroundBlur"/></filter><linearGradient x1="1" y1="0.5" x2="0.5" y2="1" id="master_svg2_542_023724"><stop offset="0%" stop-color="#D3E9FF" stop-opacity="1"/><stop offset="22.142857313156128%" stop-color="#2BCAFF" stop-opacity="0.6499999761581421"/><stop offset="100%" stop-color="#2BCAFF" stop-opacity="0"/></linearGradient><filter id="master_svg3_2077_017637" filterUnits="objectBoundingBox" color-interpolation-filters="sRGB" x="-16" y="-12" width="66.34146499633789" height="52.26666831970215"><feFlood flood-opacity="0" result="BackgroundImageFix"/><feColorMatrix in="SourceAlpha" type="matrix" values="0 0 0 0 0 0 0 0 0 0 0 0 0 0 0 0 0 0 127 0"/><feOffset dy="4" dx="0"/><feGaussianBlur stdDeviation="4"/><feColorMatrix type="matrix" values="0 0 0 0 0 0 0 0 0 0.5137255191802979 0 0 0 0 0.8823529481887817 0 0 0 0.6000000238418579 0"/><feBlend mode="normal" in2="BackgroundImageFix" result="effect1_dropShadow"/><feBlend mode="normal" in="SourceGraphic" in2="effect1_dropShadow" result="shape"/><feColorMatrix in="SourceAlpha" type="matrix" result="hardAlpha" values="0 0 0 0 0 0 0 0 0 0 0 0 0 0 0 0 0 0 127 0"/><feOffset dy="-4" dx="0"/><feGaussianBlur stdDeviation="5"/><feComposite in2="hardAlpha" operator="arithmetic" k2="-1" k3="1"/><feColorMatrix type="matrix" values="0 0 0 0 0 0 0 0 0 0.3176470696926117 0 0 0 0 0.8705882430076599 0 0 0 0.4000000059604645 0"/><feBlend mode="normal" in2="shape" result="effect2_innerShadow"/></filter><linearGradient x1="0.5" y1="0" x2="0.5" y2="1" id="master_svg4_542_023719"><stop offset="0%" stop-color="#005AE1" stop-opacity="0"/><stop offset="100%" stop-color="#005AE1" stop-opacity="0.5"/></linearGradient><linearGradient x1="0.5" y1="1" x2="0.5" y2="0" id="master_svg5_542_023721"><stop offset="0%" stop-color="#248FDC" stop-opacity="0.800000011920929"/><stop offset="100%" stop-color="#248ADC" stop-opacity="0"/></linearGradient><linearGradient x1="0.5" y1="0" x2="0.5" y2="1" id="master_svg6_542_023701"><stop offset="0%" stop-color="#FFC402" stop-opacity="0.20000000298023224"/><stop offset="100%" stop-color="#FFF202" stop-opacity="1"/></linearGradient><linearGradient x1="0.5" y1="0.5" x2="0.5" y2="1" id="master_svg7_542_023713"><stop offset="0%" stop-color="#FFC402" stop-opacity="0"/><stop offset="100%" stop-color="#FFCC02" stop-opacity="1"/></linearGradient><filter id="master_svg8_2077_017632" filterUnits="objectBoundingBox" color-interpolation-filters="sRGB" x="-16" y="-12" width="60.97561073303223" height="48"><feFlood flood-opacity="0" result="BackgroundImageFix"/><feColorMatrix in="SourceAlpha" type="matrix" values="0 0 0 0 0 0 0 0 0 0 0 0 0 0 0 0 0 0 127 0"/><feOffset dy="4" dx="0"/><feGaussianBlur stdDeviation="4"/><feColorMatrix type="matrix" values="0 0 0 0 0 0 0 0 0 0.5137255191802979 0 0 0 0 0.8823529481887817 0 0 0 0.6000000238418579 0"/><feBlend mode="normal" in2="BackgroundImageFix" result="effect1_dropShadow"/><feBlend mode="normal" in="SourceGraphic" in2="effect1_dropShadow" result="shape"/><feColorMatrix in="SourceAlpha" type="matrix" result="hardAlpha" values="0 0 0 0 0 0 0 0 0 0 0 0 0 0 0 0 0 0 127 0"/><feOffset dy="-4" dx="0"/><feGaussianBlur stdDeviation="5"/><feComposite in2="hardAlpha" operator="arithmetic" k2="-1" k3="1"/><feColorMatrix type="matrix" values="0 0 0 0 0 0 0 0 0 0.3176470696926117 0 0 0 0 0.8705882430076599 0 0 0 0.4000000059604645 0"/><feBlend mode="normal" in2="shape" result="effect2_innerShadow"/></filter><linearGradient x1="0.5" y1="0" x2="0.5" y2="1" id="master_svg9_542_023704"><stop offset="0%" stop-color="#0092E1" stop-opacity="0"/><stop offset="100%" stop-color="#0074E1" stop-opacity="0.6000000238418579"/></linearGradient><linearGradient x1="0.5" y1="0" x2="0.5" y2="1" id="master_svga_542_023716"><stop offset="0%" stop-color="#20A2FF" stop-opacity="0"/><stop offset="55.714285373687744%" stop-color="#20A2FF" stop-opacity="0.3199999928474426"/><stop offset="100%" stop-color="#2BCAFF" stop-opacity="1"/></linearGradient><linearGradient x1="0.4513073265552521" y1="0.17547607421875" x2="-1.0265923738479614" y2="1.3411712646484375" id="master_svgb_542_023732"><stop offset="0%" stop-color="#0144BF" stop-opacity="1"/><stop offset="100%" stop-color="#ACFFFE" stop-opacity="1"/></linearGradient><clipPath id="master_svgc_2077_017692"><rect x="17.5" y="0" width="24" height="24" rx="0"/></clipPath><linearGradient x1="0.5" y1="0" x2="0.5" y2="1" id="master_svgd_542_023735"><stop offset="0%" stop-color="#D5FEFE" stop-opacity="1"/><stop offset="100%" stop-color="#A9F2FF" stop-opacity="1"/></linearGradient></defs><g><g><g><ellipse cx="29.5" cy="29.200000762939453" rx="21.5" ry="12.299999237060547" stroke="url(#master_svg0_542_023710)" fill-opacity="0" fill="none" stroke-width="1"/></g><g filter="url(#master_svg1_2077_017639)"><path d="M44 12.8C44 14.7081 43.3016 16.5254 41.9047 18.2518C40.5078 19.9783 38.5455 21.4494 36.0179 22.6652C33.4902 23.881 30.6378 24.7258 27.4609 25.1994C24.2839 25.673 21.0848 25.7305 17.8637 25.3717L18.0037 24.946C21.1158 25.2926 24.2065 25.2371 27.2759 24.7795C30.3453 24.3219 33.1011 23.5058 35.5431 22.3311C37.9852 21.1565 39.881 19.7352 41.2306 18.0672C42.5802 16.3993 43.2549 14.6435 43.2549 12.8L44 12.8Z" fill="url(#master_svg2_542_023724)" fill-opacity="1"/></g><g filter="url(#master_svg3_2077_017637)"><ellipse cx="29.500000953674316" cy="23.86666774749756" rx="17.170732498168945" ry="10.133334159851074" fill="url(#master_svg4_542_023719)" fill-opacity="1"/><ellipse cx="29.500000953674316" cy="23.86666774749756" rx="16.170732498168945" ry="9.133334159851074" stroke="url(#master_svg5_542_023721)" fill-opacity="0" fill="none" stroke-width="2"/></g><g style="opacity:0.30000001192092896;"><ellipse cx="29.500001907348633" cy="30.26666784286499" rx="11.84146499633789" ry="6.9666666984558105" stroke="url(#master_svg6_542_023701)" fill-opacity="0" fill="none" stroke-width="1"/></g><g><ellipse cx="29.500001907348633" cy="30.26666784286499" rx="11.84146499633789" ry="6.9666666984558105" stroke="url(#master_svg7_542_023713)" fill-opacity="0" fill="none" stroke-width="1"/></g><g filter="url(#master_svg8_2077_017632)"><ellipse cx="29.500000953674316" cy="21.733333587646484" rx="14.487805366516113" ry="8" fill="url(#master_svg9_542_023704)" fill-opacity="1"/></g><g><path d="M15.012195587158203,20.8952Q17.1585355871582,29.7333,29.499995587158203,29.7333Q41.84149558715821,29.7333,43.9877955871582,20.8952L43.9877955871582,2L15.012195587158203,2L15.012195587158203,20.8952Z" fill="url(#master_svga_542_023716)" fill-opacity="1"/></g></g><g><g><path d="M28.75063,22.0007C25.30563,21.9772,22.5202503,19.2833,22.5,15.9554C22.5,13.4028,23.63888,11.7196,24.9575,9.77031C26.38588,7.65931,28.00463,5.26631,28.522750000000002,1.1756820000000001C28.55407,1.0528016,28.67783,0.9774587,28.80138,1.00605702C28.88748,1.0242295,28.95553,1.0901854,28.97638,1.1756820000000001C29.494880000000002,5.26618,31.11388,7.65931,32.5419,9.77018C33.861000000000004,11.7194,35,13.4027,35,15.9553C34.9798,19.2827,32.195,21.9766,28.75063,22.0007ZM31.781129999999997,16.5012Q31.22135,16.7563,31.2235,17.0663C31.227240000000002,17.8385,30.604979999999998,18.468,29.83275,18.4731C29.52501,18.4795,29.27893,18.7309,29.27893,19.0387C29.27893,19.3465,29.52501,19.5978,29.83275,19.6043C31.22385,19.5918,32.34357,18.4579,32.33863,17.0668C32.3382,16.9908,32.32291,16.915599999999998,32.29363,16.845399999999998C32.20808,16.6376,32.00584,16.5018,31.781129999999997,16.5012L31.781129999999997,16.5012Z" fill="url(#master_svgb_542_023732)" fill-opacity="1"/></g><g clip-path="url(#master_svgc_2077_017692)"><g><path d="M29.50063,22.0000896484375C26.05563,21.9765896484375,23.2702503,19.2826896484375,23.25,15.9547896484375C23.25,13.4021896484375,24.38888,11.7189896484375,25.7075,9.7696996484375C27.13588,7.6586996484375,28.75463,5.2656996484375,29.272750000000002,1.1750716484375001C29.30407,1.0521912484375,29.42783,0.9768483484375,29.55138,1.0054466684375C29.63748,1.0236191484375,29.70553,1.0895750484375,29.72638,1.1750716484375001C30.244880000000002,5.2655696484375,31.86388,7.6586996484375,33.2919,9.7695696484375C34.611000000000004,11.7187896484375,35.75,13.4020896484375,35.75,15.9546896484375C35.7298,19.2820896484375,32.945,21.9759896484375,29.50063,22.0000896484375ZM32.53113,16.5005896484375Q31.97135,16.7556896484375,31.9735,17.0656896484375C31.977240000000002,17.8378896484375,31.354979999999998,18.4673896484375,30.58275,18.4724896484375C30.27501,18.4788896484375,30.02893,18.7302896484375,30.02893,19.0380896484375C30.02893,19.3458896484375,30.27501,19.5971896484375,30.58275,19.6036896484375C31.97385,19.5911896484375,33.09357,18.4572896484375,33.08863,17.0661896484375C33.0882,16.9901896484375,33.07291,16.914989648437498,33.04363,16.844789648437498C32.95808,16.6369896484375,32.75584,16.5011896484375,32.53113,16.5005896484375L32.53113,16.5005896484375Z" fill="url(#master_svgd_542_023735)" fill-opacity="1"/></g></g></g></g></svg>