<svg xmlns="http://www.w3.org/2000/svg" xmlns:xlink="http://www.w3.org/1999/xlink" width="160" height="94" viewBox="0 0 160 94"><defs><style>.a{opacity:0.5;}.b{fill:url(#a);}.c{fill:url(#b);}.d{fill:url(#d);}.e,.f,.g,.h,.i,.j,.k,.l{fill-rule:evenodd;}.e{fill:url(#e);}.f{fill:url(#f);}.g{fill:url(#g);}.h{fill:url(#h);}.i{fill:url(#i);}.j{fill:url(#k);}.k{fill:url(#l);}.l{fill:url(#m);}.m{fill:url(#s);}.n{fill:url(#t);}.o{fill:url(#u);}.p{fill:#9db2d1;}.q{fill:#738bb0;font-size:12px;font-family:PingFangSC-Regular, PingFang SC;}.r{filter:url(#q);}.s{filter:url(#n);}</style><radialGradient id="a" cx="0.5" cy="0" r="1.172" gradientTransform="scale(1 1.349)" gradientUnits="objectBoundingBox"><stop offset="0" stop-color="#7e95b9" stop-opacity="0.2"/><stop offset="0.192" stop-color="#7e95b9" stop-opacity="0.102"/><stop offset="0.433" stop-color="#7e95b9" stop-opacity="0"/><stop offset="1" stop-color="#7e95b9" stop-opacity="0"/></radialGradient><linearGradient id="b" x1="0.5" x2="0.5" y2="1" gradientUnits="objectBoundingBox"><stop offset="0" stop-color="#5b749a" stop-opacity="0.4"/><stop offset="0.293" stop-color="#5b749a" stop-opacity="0.2"/><stop offset="0.663" stop-color="#5b749a" stop-opacity="0"/><stop offset="1" stop-color="#5b749a" stop-opacity="0"/></linearGradient><linearGradient id="d" x1="0.137" y1="-0.259" x2="0.189" y2="0.779" gradientUnits="objectBoundingBox"><stop offset="0" stop-color="#9db2d1" stop-opacity="0.302"/><stop offset="1" stop-color="#9db2d1" stop-opacity="0"/></linearGradient><linearGradient id="e" x1="1" y1="0.115" x2="0" gradientUnits="objectBoundingBox"><stop offset="0" stop-color="#4b6488"/><stop offset="1" stop-color="#5b749a"/></linearGradient><linearGradient id="f" y1="0.109" x2="1" y2="0.234" gradientUnits="objectBoundingBox"><stop offset="0" stop-color="#5b749a"/><stop offset="1" stop-color="#3a5376"/></linearGradient><linearGradient id="g" x1="0.118" y1="0.313" x2="1" y2="1" gradientUnits="objectBoundingBox"><stop offset="0" stop-color="#3a5376"/><stop offset="1" stop-color="#5b749a"/></linearGradient><linearGradient id="h" y1="0.304" x2="0.98" y2="1" gradientUnits="objectBoundingBox"><stop offset="0" stop-color="#5b749a"/><stop offset="1" stop-color="#6c85aa"/></linearGradient><linearGradient id="i" y1="0.304" x2="0.98" y2="1" gradientUnits="objectBoundingBox"><stop offset="0" stop-color="#7e95b9"/><stop offset="1" stop-color="#8ca2c4"/></linearGradient><linearGradient id="k" x1="0.26" y1="0.421" x2="0.882" y2="0.738" gradientUnits="objectBoundingBox"><stop offset="0" stop-color="#2e4667"/><stop offset="1" stop-color="#4b6488"/></linearGradient><linearGradient id="l" x1="0.785" y1="0.851" x2="0.786" y2="0.046" gradientUnits="objectBoundingBox"><stop offset="0" stop-color="#6c85aa"/><stop offset="1" stop-color="#7e95b9"/></linearGradient><linearGradient id="m" x1="0.103" y1="0.125" x2="0.944" y2="0.417" gradientUnits="objectBoundingBox"><stop offset="0" stop-color="#7e95b9"/><stop offset="1" stop-color="#5b749a"/></linearGradient><filter id="n" x="74.52" y="23.676" width="35.134" height="25.543" filterUnits="userSpaceOnUse"><feOffset dx="-1" dy="1" input="SourceAlpha"/><feGaussianBlur stdDeviation="1.5" result="o"/><feFlood flood-color="#193152" flood-opacity="0.302"/><feComposite operator="in" in2="o"/><feComposite in="SourceGraphic"/></filter><filter id="q" x="50.346" y="23.676" width="35.174" height="24.592" filterUnits="userSpaceOnUse"><feOffset dx="1" dy="1" input="SourceAlpha"/><feGaussianBlur stdDeviation="1.5" result="r"/><feFlood flood-color="#193152" flood-opacity="0.302"/><feComposite operator="in" in2="r"/><feComposite in="SourceGraphic"/></filter><linearGradient id="s" x1="0.897" y1="0.447" x2="0.536" y2="0.411" xlink:href="#l"/><linearGradient id="t" x1="0.658" y1="0.158" x2="0.887" y2="0.507" gradientUnits="objectBoundingBox"><stop offset="0" stop-color="#5b749a"/><stop offset="0.507" stop-color="#4b6488"/><stop offset="1" stop-color="#3a5376"/></linearGradient><linearGradient id="u" x1="0.034" y1="1" x2="0.724" y2="0.048" gradientUnits="objectBoundingBox"><stop offset="0" stop-color="#5b749a"/><stop offset="1" stop-color="#2e4667"/></linearGradient></defs><g class="a" transform="translate(6697 17267.57)"><path class="b" d="M175,49.2H15a31.359,31.359,0,0,1,1.625-9.915,36.935,36.935,0,0,1,4.661-9.235,48.758,48.758,0,0,1,7.376-8.357,65.482,65.482,0,0,1,9.769-7.281A84.7,84.7,0,0,1,50.272,8.4,103.349,103.349,0,0,1,63.861,3.866,118.791,118.791,0,0,1,78.878,1a130.537,130.537,0,0,1,32.246,0A118.792,118.792,0,0,1,126.14,3.866,103.349,103.349,0,0,1,139.729,8.4a84.7,84.7,0,0,1,11.84,6.007,65.482,65.482,0,0,1,9.769,7.281,48.758,48.758,0,0,1,7.376,8.357,36.935,36.935,0,0,1,4.661,9.235A31.359,31.359,0,0,1,175,49.2Z" transform="translate(-6712 -17222.768)"/><path class="c" d="M-5385.117-12300.385a5.431,5.431,0,0,1-1.191.132,5.356,5.356,0,0,1-3.015-.923,5,5,0,0,1-4.677,3.229,5,5,0,0,1-5-5,5,5,0,0,1,5-5,4.976,4.976,0,0,1,2.552.7,5.386,5.386,0,0,1,5.14-3.775,5.386,5.386,0,0,1,5.347,4.747,5.377,5.377,0,0,1,1.191-.133,5.384,5.384,0,0,1,5.384,5.386,5.385,5.385,0,0,1-5.384,5.385A5.387,5.387,0,0,1-5385.117-12300.385Z" transform="translate(-1276.461 -4954.792)"/><path class="c" d="M-5385.117-12300.385a5.431,5.431,0,0,1-1.191.132,5.356,5.356,0,0,1-3.015-.923,5,5,0,0,1-4.677,3.229,5,5,0,0,1-5-5,5,5,0,0,1,5-5,4.976,4.976,0,0,1,2.552.7,5.386,5.386,0,0,1,5.14-3.775,5.386,5.386,0,0,1,5.347,4.747,5.377,5.377,0,0,1,1.191-.133,5.384,5.384,0,0,1,5.384,5.386,5.385,5.385,0,0,1-5.384,5.385A5.387,5.387,0,0,1-5385.117-12300.385Z" transform="translate(-1177.999 -4939.418)"/><g transform="translate(-6643.153 -17244.674)"><path class="d" d="M6313.827,19845.082l43.1.023,37.759,16.773-55.8,14.445Z" transform="translate(-6310.47 -19818.584)"/><path class="e" d="M150.617-172.72,129-177v36.072l21.617-8.967Z" transform="translate(-102.826 177)"/><path class="f" d="M17-172.72,39.841-177v36.072L17-150.507Z" transform="translate(-13.666 177)"/><path class="g" d="M17-156l22.841,4.076v27.716L17-133.786Z" transform="translate(-13.666 160.28)"/><path class="h" d="M28-140l17.334,3.057v20.787L28-123.34Z" transform="translate(-22.423 147.54)"/><path class="i" d="M49.848-70.293v2.446L37-73.042v-2.446Z" transform="translate(-29.588 96.175)"/><path class="i" d="M49.848-90.293v2.446L37-93.042v-2.446Z" transform="translate(-29.588 112.099)"/><path class="j" d="M150.617-156,129-151.924v27.716l21.617-8.967Z" transform="translate(-102.826 160.28)"/><path class="k" d="M181.894-71l-.74.823-.79-.106-.482.705-.954-.245-.81.756H177v8.46l4.894-2.012Z" transform="translate(-141.037 92.602)"/><g class="s" transform="matrix(1, 0, 0, 1, -53.85, -22.9)"><path class="l" d="M150.617-156,129-151.924l4.444,12.2a.408.408,0,0,0,.523.244l20.9-7.595a.407.407,0,0,0,.244-.522.406.406,0,0,0-.024-.053L150.617-156Z" transform="translate(-48.98 183.18)"/></g><g class="r" transform="matrix(1, 0, 0, 1, -53.85, -22.9)"><path class="l" d="M3.988-156l22.841,4.076L23.2-140.69a.408.408,0,0,1-.508.264L.943-147.107a.408.408,0,0,1-.27-.509q0-.015.011-.03L3.988-156Z" transform="translate(53.19 183.18)"/></g></g><g transform="translate(-6615.875 -17267.57)"><path class="m" d="M16299.268,2854.5c.066-.025,16.055-6.327,16.055-6.327l-4.081,11.961-5.276-2.329-2.438,2.6-.168-4.162Z" transform="translate(-16299.268 -2848.172)"/><path class="n" d="M16345.982,2848.172l-11.951,8.075.15,4.225,1.65-3.121Z" transform="translate(-16329.929 -2848.172)"/><path class="o" d="M16335.313,2929.829l1.662-3.122.844.472Z" transform="translate(-16331.07 -2917.532)"/></g><path class="p" d="M3585.343,16246.985a10.135,10.135,0,0,1-1.012-.551l.4-.655a9.9,9.9,0,0,0,1.314.681l-.188.442S3585.489,16246.971,3585.343,16246.985Zm-1.675-.993a11.251,11.251,0,0,1-1.222-1.02l.533-.555a10.38,10.38,0,0,0,1.138.95Zm-1.776-1.592a10.94,10.94,0,0,1-.979-1.256l.64-.428a10.153,10.153,0,0,0,.911,1.168Zm-1.4-1.937a9.442,9.442,0,0,1-.666-1.457l.725-.257a8.674,8.674,0,0,0,.612,1.338Zm-.9-2.229a7.071,7.071,0,0,1-.215-1.609l.77-.01a6.3,6.3,0,0,0,.192,1.434Zm9.325-.324-.078-.765a1.019,1.019,0,0,0,.859-.653l.7.314A1.781,1.781,0,0,1,3588.921,16239.91Zm-.9-.087a3.547,3.547,0,0,1-.486-.171,4.5,4.5,0,0,1-1.013-.593l.475-.6a3.711,3.711,0,0,0,.839.49,2.971,2.971,0,0,0,.386.136Zm-2.108-1.359a4.043,4.043,0,0,1-.764-1.5l.742-.2a3.273,3.273,0,0,0,.617,1.22Zm4.714-.517-.765-.079a3.413,3.413,0,0,0-.159-1.362l.733-.232A4.189,4.189,0,0,1,3590.626,16237.947Zm-10.437-.047-.763-.1a5.169,5.169,0,0,1,.461-1.59l.694.332A4.418,4.418,0,0,0,3580.189,16237.9Zm4.81-1.76a6.4,6.4,0,0,1,.059-1.632l.76.12a5.664,5.664,0,0,0-.054,1.436Zm-4.062-.2-.627-.446a5.216,5.216,0,0,1,1.166-1.174l.455.621A4.425,4.425,0,0,0,3580.938,16235.942Zm8.5-.085a4,4,0,0,0-.847-1.111l.52-.566a4.749,4.749,0,0,1,1.01,1.323Zm-6.9-1.3-.369-.675a7.643,7.643,0,0,1,1.341-.565l.155-.047.22.737c-.047.014-.1.028-.143.044A6.87,6.87,0,0,0,3582.538,16234.559Zm5.494-.234a3.95,3.95,0,0,0-1.3-.516l.157-.754a4.73,4.73,0,0,1,1.547.617Zm-2.062-.41-.687-.18a6.449,6.449,0,0,0-.687.1l-.148-.755a7.117,7.117,0,0,1,1.02-.127c.09-.248.191-.5.3-.739l.7.322a8.568,8.568,0,0,0-.436,1.155l0,.03h-.007C3586.005,16233.783,3585.987,16233.85,3585.97,16233.914Zm.835-2.038-.67-.378a9.255,9.255,0,0,1,.9-1.324l.595.487A8.577,8.577,0,0,0,3586.805,16231.876Zm1.318-1.755-.542-.546a5.873,5.873,0,0,1,1.306-1l.368.676A5.138,5.138,0,0,0,3588.124,16230.121Z" transform="translate(-10201.73 -33483.406)"/><text class="q" transform="translate(-6617 -17177.57)"><tspan x="-24" y="0">暂无数据</tspan></text></g></svg>