<svg xmlns="http://www.w3.org/2000/svg" xmlns:xlink="http://www.w3.org/1999/xlink" fill="none" version="1.1" width="80" height="70" viewBox="0 0 80 70"><defs><linearGradient x1="5.101135069907059e-9" y1="0.25934600830078125" x2="1" y2="0.25934600830078125" id="master_svg0_824_076237"><stop offset="0%" stop-color="#0F336A" stop-opacity="1"/><stop offset="48.4413206577301%" stop-color="#164995" stop-opacity="1"/><stop offset="100%" stop-color="#0F336A" stop-opacity="1"/></linearGradient><linearGradient x1="0.5" y1="-3.0616171314629196e-17" x2="0.5" y2="1" id="master_svg1_824_075903"><stop offset="0%" stop-color="#0A1F3E" stop-opacity="1"/><stop offset="97.85714149475098%" stop-color="#072758" stop-opacity="1"/></linearGradient><linearGradient x1="0.3500000238418579" y1="-3.867078390840106e-8" x2="0.5" y2="0.9999999403953552" id="master_svg2_824_075177"><stop offset="3.53194996714592%" stop-color="#12438D" stop-opacity="1"/><stop offset="100%" stop-color="#3F85EE" stop-opacity="1"/></linearGradient><linearGradient x1="6.722161212001018e-14" y1="0.38487961888313293" x2="1.0800000429153442" y2="0.38487961888313293" id="master_svg3_824_075287"><stop offset="0%" stop-color="#1A66D8" stop-opacity="0.30000001192092896"/><stop offset="47.54769206047058%" stop-color="#1A66D8" stop-opacity="0.10000000149011612"/><stop offset="100%" stop-color="#1A66D8" stop-opacity="0.30000001192092896"/></linearGradient><linearGradient x1="0.5" y1="1" x2="0.5" y2="0.14724120497703552" id="master_svg4_824_076241"><stop offset="0%" stop-color="#1A66D8" stop-opacity="1"/><stop offset="99.99996423721313%" stop-color="#1A66D8" stop-opacity="0"/></linearGradient></defs><g><g><g><path d="M5.00529876,57.94710425445557L5,56.236634254455566L5.26429,57.294724254455566L6.1077200000000005,58.34030425445557L7.53177,59.35929425445557L9.53781,60.337564254455565L12.12707,61.260894254455565L15.3006,62.115034254455566L18.9394,62.86228425445557L22.884,63.47423425445557L27.0735,63.95051425445557L31.4468,64.29091425445557L35.9427,64.49521425445556L40.5,64.56334425445557L45.0573,64.49521425445556L49.5533,64.29091425445557L53.9265,63.95051425445557L58.116,63.47423425445557L62.0605,62.86228425445557L65.6997,62.115034254455566L68.8728,61.260894254455565L71.4624,60.337564254455565L73.468,59.35929425445557L74.8923,58.34030425445557L75.7358,57.294724254455566L76,56.236634254455566L75.9947,57.94710425445557L75.9893,59.65706425445557L75.7251,60.71721425445557L74.8822,61.76484425445557L73.4584,62.78582425445557L71.4528,63.76599425445556L68.8642,64.69113425445556L65.6917,65.54696425445556L62.0541,66.29563425445556L58.1107,66.90873425445557L53.9225,67.38603425445557L49.5505,67.72703425445556L45.056,67.93173425445556L40.5,68.00003425445557L35.944,67.93173425445556L31.4495,67.72703425445556L27.0775,67.38603425445557L22.8893,66.90873425445557L18.9459,66.29563425445556L15.3081,65.54696425445556L12.13555,64.69113425445556L9.547080000000001,63.76599425445556L7.54163,62.78582425445557L6.118,61.76484425445557L5.274811,60.71721425445557L5.0105935,59.65706425445557L5.00529876,57.94710425445557Z" fill-rule="evenodd" fill="url(#master_svg0_824_076237)" fill-opacity="1"/></g><g><path d="M40.5,48L45.0083,48.0666505L49.4582,48.266635L53.7915,48.60006L57.9497,49.06711L61.8742,49.66801L65.5059,50.40311L68.6865,51.24512L71.2959,52.15747L73.333,53.1265L74.7973,54.13852L75.6866,55.17974L76,56.23637L75.7358,57.29445L74.8923,58.34L73.468,59.359L71.4624,60.3373L68.8728,61.2606L65.6997,62.1148L62.0605,62.862L58.116,63.474000000000004L53.9265,63.9503L49.5533,64.2906L45.0573,64.495L40.5,64.563L35.9427,64.495L31.4468,64.2906L27.0735,63.9503L22.884,63.474000000000004L18.9394,62.862L15.3006,62.1148L12.12707,61.2606L9.53781,60.3373L7.53177,59.359L6.1077200000000005,58.34L5.26429,57.29445L5,56.23637L5.3133230000000005,55.17974L6.20275,54.13852L7.6668,53.1265L9.70415,52.15747L12.31359,51.24512L15.4941,50.40311L19.125999999999998,49.66801L23.0503,49.06711L27.2085,48.60006L31.5418,48.266635L35.9917,48.0666505L40.5,48Z" fill-rule="evenodd" fill="url(#master_svg1_824_075903)" fill-opacity="1"/></g></g><g><path d="M40,6L43.8149,6.0524529L47.5802,6.209834L51.2463,6.472206L54.7635,6.839672L58.082,7.31238L61.1519,7.89052L63.839,8.55257L66.042,9.26972L67.7604,10.031220000000001L68.9936,10.82621L69.7404,11.643889999999999L70,12.47336L69.7715,13.3037L69.0539,14.12393L67.84620000000001,14.92303L66.1477,15.68997L63.9575,16.413600000000002L61.2749,17.0828L58.2005,17.668100000000003L54.8692,18.147399999999998L51.3321,18.5203L47.6406,18.7867L43.8461,18.9467L40,19L36.1539,18.9467L32.3594,18.7867L28.6679,18.5203L25.1309,18.147399999999998L21.799500000000002,17.668100000000003L18.72514,17.0828L16.04254,16.413600000000002L13.85229,15.68997L12.15373,14.92303L10.946092,14.12393L10.228493,13.3037L10,12.47336L10.259646,11.643889999999999L11.00647,10.82621L12.23953,10.031220000000001L13.95798,9.26972L16.16104,8.55257L18.84814,7.89052L21.918,7.31238L25.2365,6.839672L28.7537,6.472206L32.419799999999995,6.209834L36.1851,6.0524529L40,6Z" fill-rule="evenodd" fill="url(#master_svg2_824_075177)" fill-opacity="1"/></g><g></g><g><ellipse cx="40" cy="10.5" rx="29.81050956249237" ry="6.310509562492371" fill-opacity="0" stroke-opacity="1" stroke="#1A66D8" fill="none" stroke-width="0.3789808750152588"/></g><g style="opacity:0.800000011920929;"><path d="M40,19.2302C56.5685,19.2302,70,16.2686,70,12.615120000000001L70,54.3849C70,58.0383,56.5685,61,40,61C23.4315,61,10,58.0383,10,54.3849L10,12.615120000000001C10,16.2686,23.4315,19.2302,40,19.2302Z" fill-rule="evenodd" fill="url(#master_svg3_824_075287)" fill-opacity="1"/></g><g><ellipse cx="40" cy="60" rx="39.81050956249237" ry="9.81050956249237" stroke="url(#master_svg4_824_076241)" fill-opacity="0" fill="none" stroke-width="0.3789808750152588"/></g><g style="opacity:0.5;"><g><ellipse cx="18.757961750030518" cy="39.75675672292709" rx="0.7579617500305176" ry="0.7567567229270935" fill="#1A66D8" fill-opacity="1"/></g><g><ellipse cx="17.757961750030518" cy="29.756756722927094" rx="0.7579617500305176" ry="0.7567567229270935" fill="#1A66D8" fill-opacity="1"/></g><g><ellipse cx="64.75796175003052" cy="44.75675672292709" rx="0.7579617500305176" ry="0.7567567229270935" fill="#1A66D8" fill-opacity="1"/></g><g><ellipse cx="27.757961750030518" cy="53.75675672292709" rx="0.7579617500305176" ry="0.7567567229270935" fill="#1A66D8" fill-opacity="1"/></g><g><ellipse cx="59.75796175003052" cy="46.75675672292709" rx="0.7579617500305176" ry="0.7567567229270935" fill="#1A66D8" fill-opacity="1"/></g><g><ellipse cx="51.21352815628052" cy="29.810467660427094" rx="0.7579617500305176" ry="0.7567567229270935" fill="#1A66D8" fill-opacity="1"/></g><g><ellipse cx="61.97280550003052" cy="23.756756722927094" rx="0.7579617500305176" ry="0.7567567229270935" fill="#1A66D8" fill-opacity="1"/></g><g><ellipse cx="18.515923500061035" cy="46.51351344585419" rx="1.5159235000610352" ry="1.513513445854187" fill="#1A66D8" fill-opacity="1"/></g><g><ellipse cx="25.064263343811035" cy="24.513513445854187" rx="1.5159235000610352" ry="1.513513445854187" fill="#1A66D8" fill-opacity="1"/></g><g><ellipse cx="26.515923500061035" cy="31.513513445854187" rx="1.5159235000610352" ry="1.513513445854187" fill="#1A66D8" fill-opacity="1"/></g><g><ellipse cx="34.917290687561035" cy="26.026208758354187" rx="1.5159235000610352" ry="1.513513445854187" fill="#1A66D8" fill-opacity="1"/></g><g><ellipse cx="15.515923500061035" cy="34.51351344585419" rx="1.5159235000610352" ry="1.513513445854187" fill="#1A66D8" fill-opacity="1"/></g><g><ellipse cx="54.390923500061035" cy="29.053552508354187" rx="1.5159235000610352" ry="1.513513445854187" fill="#1A66D8" fill-opacity="1"/></g><g><ellipse cx="41.515923500061035" cy="24.513513445854187" rx="1.5159235000610352" ry="1.513513445854187" fill="#1A66D8" fill-opacity="1"/></g><g><ellipse cx="64.51592350006104" cy="33.51351344585419" rx="1.5159235000610352" ry="1.513513445854187" fill="#1A66D8" fill-opacity="1"/></g><g><ellipse cx="55.515923500061035" cy="54.51351344585419" rx="1.5159235000610352" ry="1.513513445854187" fill="#1A66D8" fill-opacity="1"/></g></g></g></svg>