<svg xmlns="http://www.w3.org/2000/svg" xmlns:xlink="http://www.w3.org/1999/xlink" fill="none" version="1.1" width="97.56781005859375" height="68.085205078125" viewBox="0 0 97.56781005859375 68.085205078125"><defs><linearGradient x1="1" y1="0.06541160494089127" x2="0" y2="0.9252025485038757" id="master_svg0_542_029486"><stop offset="0%" stop-color="#00121D" stop-opacity="1"/><stop offset="100%" stop-color="#18799E" stop-opacity="1"/></linearGradient><linearGradient x1="1" y1="0.06541160494089127" x2="0" y2="0.9252025485038757" id="master_svg1_542_029469"><stop offset="0%" stop-color="#18799E" stop-opacity="1"/><stop offset="100%" stop-color="#00121D" stop-opacity="1"/></linearGradient><linearGradient x1="0.5" y1="-0.07887735217809677" x2="0.5" y2="1" id="master_svg2_542_029477"><stop offset="0%" stop-color="#000000" stop-opacity="1"/><stop offset="60.57034730911255%" stop-color="#001C3E" stop-opacity="1"/><stop offset="100%" stop-color="#01B1F7" stop-opacity="1"/></linearGradient><linearGradient x1="0.5" y1="0" x2="0.5" y2="1" id="master_svg3_542_029481"><stop offset="2.142857201397419%" stop-color="#000000" stop-opacity="1"/><stop offset="46.42857015132904%" stop-color="#002646" stop-opacity="1"/><stop offset="64.28571343421936%" stop-color="#0057B5" stop-opacity="1"/><stop offset="86.17864847183228%" stop-color="#09C0FD" stop-opacity="1"/><stop offset="100%" stop-color="#00F7FF" stop-opacity="1"/></linearGradient><linearGradient x1="0.5" y1="0" x2="0.5" y2="1" id="master_svg4_542_029483"><stop offset="0%" stop-color="#00AEFF" stop-opacity="0"/><stop offset="100%" stop-color="#01B1F7" stop-opacity="1"/></linearGradient><filter id="master_svg5_1836_051171" filterUnits="objectBoundingBox" color-interpolation-filters="sRGB" x="-20" y="-12.499999523162842" width="107.56784057617188" height="74.3351821899414"><feFlood flood-opacity="0" result="BackgroundImageFix"/><feColorMatrix in="SourceAlpha" type="matrix" values="0 0 0 0 0 0 0 0 0 0 0 0 0 0 0 0 0 0 127 0"/><feOffset dy="7.500000476837158" dx="0"/><feGaussianBlur stdDeviation="5"/><feColorMatrix type="matrix" values="0 0 0 0 0 0 0 0 0 0 0 0 0 0 0 0 0 0 0.30000001192092896 0"/><feBlend mode="normal" in2="BackgroundImageFix" result="effect1_dropShadow"/><feBlend mode="normal" in="SourceGraphic" in2="effect1_dropShadow" result="shape"/></filter><linearGradient x1="0.5" y1="0" x2="0.5" y2="1" id="master_svg6_542_029472"><stop offset="0%" stop-color="#155BFF" stop-opacity="0"/><stop offset="52.85714268684387%" stop-color="#155BFF" stop-opacity="0.4099999964237213"/><stop offset="83.57142806053162%" stop-color="#15CCFF" stop-opacity="0.8100000023841858"/><stop offset="100%" stop-color="#43FEFC" stop-opacity="1"/></linearGradient><filter id="master_svg7_1836_051172" filterUnits="objectBoundingBox" color-interpolation-filters="sRGB" x="-20" y="-12.499999523162842" width="83.74031066894531" height="68.13375663757324"><feFlood flood-opacity="0" result="BackgroundImageFix"/><feColorMatrix in="SourceAlpha" type="matrix" values="0 0 0 0 0 0 0 0 0 0 0 0 0 0 0 0 0 0 127 0"/><feOffset dy="7.500000476837158" dx="0"/><feGaussianBlur stdDeviation="5"/><feColorMatrix type="matrix" values="0 0 0 0 0 0 0 0 0 0 0 0 0 0 0 0 0 0 0.30000001192092896 0"/><feBlend mode="normal" in2="BackgroundImageFix" result="effect1_dropShadow"/><feBlend mode="normal" in="SourceGraphic" in2="effect1_dropShadow" result="shape"/></filter><linearGradient x1="0.5" y1="0" x2="0.5" y2="1" id="master_svg8_542_029472"><stop offset="0%" stop-color="#155BFF" stop-opacity="0"/><stop offset="52.85714268684387%" stop-color="#155BFF" stop-opacity="0.4099999964237213"/><stop offset="83.57142806053162%" stop-color="#15CCFF" stop-opacity="0.8100000023841858"/><stop offset="100%" stop-color="#43FEFC" stop-opacity="1"/></linearGradient><clipPath id="master_svg9_1836_051174"><rect x="31.0301513671875" y="0" width="30" height="30" rx="0"/></clipPath><linearGradient x1="0.4513073265552521" y1="0.17547607421875" x2="-1.0265923738479614" y2="1.3411712646484375" id="master_svga_542_023732"><stop offset="0%" stop-color="#0144BF" stop-opacity="1"/><stop offset="100%" stop-color="#ACFFFE" stop-opacity="1"/></linearGradient><clipPath id="master_svgb_1836_051175"><rect x="32.2801513671875" y="1.25" width="30" height="30" rx="0"/></clipPath><linearGradient x1="0.5" y1="0" x2="0.5" y2="1" id="master_svgc_542_023735"><stop offset="0%" stop-color="#D5FEFE" stop-opacity="1"/><stop offset="100%" stop-color="#A9F2FF" stop-opacity="1"/></linearGradient></defs><g><g><g><path d="M46.979400634765625,56.39436258239746L46.979400634765625,58.74996258239746L86.67860063476562,44.12575258239746L86.67860063476562,41.77016258239746L46.979400634765625,56.39436258239746Z" fill="url(#master_svg0_542_029486)" fill-opacity="1"/></g><g transform="matrix(1,0,0,-1,0,117.49984741210938)"><path d="M7.2801513671875,73.37412370605469L7.2801513671875,75.72972370605468L46.9793513671875,61.10551370605469L46.9793513671875,58.74992370605469L7.2801513671875,73.37412370605469Z" fill="url(#master_svg1_542_029469)" fill-opacity="1"/></g><g><rect x="46.695682525634766" y="56.11700439453125" width="0.5844689607620239" height="2.543346881866455" rx="0" fill="#01CEF7" fill-opacity="1"/></g><g><path d="M47.2413513671875,27.363624661376953Q46.9785513671875,27.25578266137695,46.7161513671875,27.365018661376954L8.0426803671875,43.469621661376955Q7.6098623671875,43.649821661376954,7.6196213671875,44.11862166137695Q7.6293803671875,44.587321661376954,8.0693263671875,44.74942166137696L46.7427513671875,58.995721661376955Q46.9785513671875,59.082621661376955,47.2148513671875,58.99692166137695L86.4743513671875,44.75052166137695Q86.9174513671875,44.589721661376956,86.9271513671875,44.118421661376956Q86.9368513671875,43.64712166137696,86.5007513671875,43.46822166137695L47.2413513671875,27.363624661376953ZM8.282941367187501,44.04662166137695L46.9564513671875,27.941990661376952Q46.9802513671875,27.932060661376955,47.0041513671875,27.941864661376954L86.2635513671875,44.046421661376954Q86.3032513671875,44.062721661376955,86.3023513671875,44.105521661376955Q86.3014513671875,44.14842166137696,86.2611513671875,44.16302166137695L47.0016513671875,58.40942166137695Q46.9802513671875,58.417221661376956,46.9587513671875,58.40932166137695L8.2853713671875,44.162921661376956Q8.2453733671875,44.14822166137695,8.2444863671875,44.10562166137696Q8.2435983671875,44.06302166137695,8.282941367187501,44.04662166137695Z" fill-rule="evenodd" fill="url(#master_svg2_542_029477)" fill-opacity="1"/></g><g><path d="M8.1628133671875,41.40260808868408C7.8480363671875,41.53370808868408,7.8573873671875,41.98280808868408,8.1773473671875,42.10070808868409L46.8507513671875,56.34700808868408C46.9338513671875,56.377608088684084,47.0250513671875,56.37780808868408,47.1082513671875,56.34760808868408L86.3677513671875,42.10120808868408C86.6900513671875,41.98430808868408,86.6993513671875,41.531908088684084,86.3821513671875,41.40180808868408L47.1227513671875,25.297230788684082C47.0309513671875,25.259560988684083,46.9279513671875,25.25983448868408,46.8363513671875,25.297991188684083L8.1628133671875,41.40260808868408Z" fill="url(#master_svg3_542_029481)" fill-opacity="1"/><path d="M47.2413513671875,25.008111088684082Q46.9785513671875,24.90026908868408,46.7161513671875,25.009505088684083L8.0426803671875,41.114108088684084Q7.6098623671875,41.29430808868408,7.6196213671875,41.76310808868408Q7.6293803671875,42.23180808868408,8.0693263671875,42.393908088684086L46.7427513671875,56.64020808868408Q46.9785513671875,56.72710808868408,47.2148513671875,56.64140808868408L86.4743513671875,42.39500808868408Q86.9174513671875,42.234208088684085,86.9271513671875,41.762908088684085Q86.9368513671875,41.291608088684086,86.5007513671875,41.11270808868408L47.2413513671875,25.008111088684082ZM8.282941367187501,41.69110808868408L46.9564513671875,25.58647708868408Q46.9802513671875,25.576547088684084,47.0041513671875,25.586351088684083L86.2635513671875,41.69090808868408Q86.3032513671875,41.707208088684084,86.3023513671875,41.75000808868408Q86.3014513671875,41.79290808868409,86.2611513671875,41.80750808868408L47.0016513671875,56.05390808868408Q46.9802513671875,56.061708088684085,46.9587513671875,56.05380808868408L8.2853713671875,41.807408088684085Q8.2453733671875,41.79270808868408,8.2444863671875,41.75010808868409Q8.2435983671875,41.70750808868408,8.282941367187501,41.69110808868408Z" fill-rule="evenodd" fill="url(#master_svg4_542_029483)" fill-opacity="1"/></g><g filter="url(#master_svg5_1836_051171)"><path d="M14.999988079071045,11.25L22.259348079071046,36.1134L47.38788807907105,45.5852L74.19168807907104,36.1134L82.56778807907105,11.25L14.999988079071045,11.25Z" fill="url(#master_svg6_542_029472)" fill-opacity="1"/></g><g filter="url(#master_svg7_1836_051172)"><path d="M26.91375732421875,13.079039573669434L31.613127324218752,33.45173957366943L47.88015732421875,41.212839573669434L65.23175732421875,33.45173957366943L70.65405732421874,13.079039573669434L26.91375732421875,13.079039573669434Z" fill="url(#master_svg8_542_029472)" fill-opacity="1"/></g></g><g><g clip-path="url(#master_svg9_1836_051174)"><g><path d="M43.510931367187496,27.24601171875C42.7067213671875,27.08111171875,41.9208113671875,26.83711171875,41.1646813671875,26.51731171875C40.421191367187504,26.20271171875,39.7100013671875,25.81681171875,39.0410913671875,25.36481171875C38.3771013671875,24.91631171875,37.7576513671875,24.40521171875,37.1912513671875,23.83851171875C36.6247813671875,23.27171171875,36.1137113671875,22.65241171875,35.6650013671875,21.98861171875C35.2129913671875,21.31971171875,34.8269813671875,20.60851171875,34.5123403671875,19.86511171875C34.1926593671875,19.10901171875,33.9487093671875,18.32301171875,33.7840573671875,17.518911718749997C33.6149806671875,16.68991171875,33.5299129481875,15.84581171875,33.5301513671875,14.99951171875C33.5300273891875,14.15341171875,33.6152000671875,13.30941171875,33.7843723671875,12.48044171875C33.9490913671875,11.67599171875,34.1930403671875,10.89001171875,34.5126553671875,10.13379171875C34.8273913671875,9.390531718750001,35.2134213671875,8.679471718750001,35.6653113671875,8.01068171875C36.1140113671875,7.34677171875,36.6250813671875,6.72711171875,37.191561367187504,6.16040171875C37.7582113671875,5.59399171875,38.3776313671875,5.08282171875,39.0414113671875,4.63406171875C39.7104413671875,4.18240171875,40.4216113671875,3.79635171875,41.1650013671875,3.48156771875C41.921211367187496,3.16220071875,42.7070913671875,2.91821271875,43.5112513671875,2.75326571875C44.3402513671875,2.58419801875,45.184151367187496,2.49920654275,46.0301513671875,2.49951171875C46.876351367187496,2.49920654275,47.7205513671875,2.58419801875,48.5496513671875,2.75326571875C49.3538513671875,2.91821271875,50.1397513671875,3.16204871875,50.8959513671875,3.48156771875C51.6391513671875,3.7965117187499997,52.3501513671875,4.18240171875,53.0190513671875,4.63406171875C53.682851367187496,5.08282171875,54.3023513671875,5.59399171875,54.8692513671875,6.16040171875C55.4356513671875,6.72711171875,55.9467513671875,7.34677171875,56.395451367187505,8.01068171875C56.847251367187496,8.679621718749999,57.2332513671875,9.390531718750001,57.5481513671875,10.13379171875C57.867751367187495,10.89001171875,58.1116513671875,11.67615171875,58.276451367187505,12.48044171875C58.4454513671875,13.30941171875,58.530451367187496,14.15341171875,58.5301513671875,14.99951171875C58.530451367187496,15.84561171875,58.4454513671875,16.68971171875,58.2763513671875,17.518711718749998C58.1117513671875,18.32291171875,57.867751367187495,19.10881171875,57.5481513671875,19.86491171875C57.233351367187495,20.60831171875,56.8473513671875,21.31951171875,56.395451367187505,21.98851171875C55.9467513671875,22.65221171875,55.4356513671875,23.27161171875,54.8692513671875,23.83831171875C54.302551367187505,24.40491171875,53.6830513671875,24.91601171875,53.0190513671875,25.36461171875C52.3502513671875,25.81661171875,51.6392513671875,26.20251171875,50.8959513671875,26.51711171875C50.1397513671875,26.83681171875,49.3538513671875,27.08091171875,48.5496513671875,27.24591171875C47.7215513671875,27.41451171875,46.8775513671875,27.49951171875,46.0301513671875,27.49951171875C45.1840513671875,27.49971171875,44.3400513671875,27.41481171875,43.510931367187496,27.24601171875ZM42.1376513671875,5.78534171875C41.5429913671875,6.03696171875,40.9741813671875,6.34579171875,40.4392213671875,6.70727171875C39.9079513671875,7.06616171875,39.4123113671875,7.47510171875,38.9590613671875,7.92843171875C38.5058313671875,8.38193171875,38.0969513671875,8.87753171875,37.7379613671875,9.40854171875C37.3765013671875,9.943511718749999,37.0677713671875,10.51236171875,36.8160813671875,11.10699171875C36.2948513671875,12.33838171875,36.0275313671875,13.66241171875,36.0301513671875,14.99951171875C36.0276013671875,16.33661171875,36.2949713671875,17.660611718749998,36.8162413671875,18.89201171875C37.0679813671875,19.48671171875,37.3767113671875,20.05551171875,37.7381213671875,20.59051171875C38.0972213671875,21.12151171875,38.5061013671875,21.61711171875,38.9592213671875,22.07061171875C39.412661367187496,22.52391171875,39.9083013671875,22.93271171875,40.4393813671875,23.29171171875C40.9744613671875,23.65311171875,41.5432613671875,23.96191171875,42.137811367187496,24.21371171875C43.3691713671875,24.73491171875,44.6930513671875,25.00211171875,46.0301513671875,24.99951171875C47.367351367187496,25.00191171875,48.6912513671875,24.73461171875,49.9226513671875,24.21341171875C50.5173513671875,23.96161171875,51.0862513671875,23.65281171875,51.6213513671875,23.29141171875C52.1523513671875,22.93211171875,52.6479513671875,22.52331171875,53.1015513671875,22.07031171875C53.5546513671875,21.61691171875,53.9635513671875,21.12131171875,54.322651367187504,20.59021171875C54.683951367187504,20.05501171875,54.9926513671875,19.48621171875,55.2445513671875,18.89171171875C55.7655513671875,17.660311718750002,56.0327513671875,16.33661171875,56.0301513671875,14.99951171875C56.032851367187504,13.66241171875,55.7656513671875,12.33853171875,55.2445513671875,11.10715171875C54.992751367187495,10.51266171875,54.6840513671875,9.94382171875,54.322651367187504,9.40869171875C53.963651367187495,8.87768171875,53.5547513671875,8.382081718750001,53.1015513671875,7.92859171875C52.648151367187495,7.47525171875,52.1525513671875,7.06647171875,51.6213513671875,6.70743171875C51.0862513671875,6.34610171875,50.5173513671875,6.03726171875,49.9226513671875,5.78549171875C48.6912513671875,5.26425171875,47.367351367187496,4.99692171875,46.0301513671875,4.99951171875C44.692951367187504,4.99692171875,43.3690613671875,5.26410171875,42.1376513671875,5.78534171875ZM37.3582713671875,14.99951171875C37.3578513671875,14.40041171875,37.4192713671875,13.80311171875,37.5415513671875,13.21671171875C40.2492013671875,13.18101171875,41.1049913671875,13.61871171875,42.8484313671875,14.66981171875C44.7078513671875,15.78961171875,45.366751367187504,16.732311718749997,48.0871513671875,16.54661171875C50.7218513671875,16.367311718750003,51.670451367187496,14.12271171875,54.6403513671875,13.96221171875C54.6813513671875,14.30661171875,54.7018513671875,14.65311171875,54.7017513671875,15.00001171875C54.7017513671875,19.78921171875,50.8191513671875,23.67181171875,46.029851367187504,23.67181171875C41.2406813671875,23.67201171875,37.3582713671875,19.78911171875,37.3582713671875,14.99951171875Z" fill="url(#master_svga_542_023732)" fill-opacity="1"/></g></g><g clip-path="url(#master_svgb_1836_051175)"><g><path d="M44.760931367187496,28.49601171875C43.9567213671875,28.33111171875,43.1708113671875,28.08711171875,42.4146813671875,27.76731171875C41.671191367187504,27.45271171875,40.9600013671875,27.06681171875,40.2910913671875,26.61481171875C39.6271013671875,26.16631171875,39.0076513671875,25.65521171875,38.4412513671875,25.08851171875C37.8747813671875,24.52171171875,37.3637113671875,23.90241171875,36.9150013671875,23.23861171875C36.4629913671875,22.56971171875,36.0769813671875,21.85851171875,35.7623403671875,21.11511171875C35.4426593671875,20.35901171875,35.1987093671875,19.57301171875,35.0340573671875,18.768911718749997C34.8649806671875,17.93991171875,34.7799129481875,17.09581171875,34.7801513671875,16.24951171875C34.7800273891875,15.40341171875,34.8652000671875,14.55941171875,35.0343723671875,13.73044171875C35.1990913671875,12.92599171875,35.4430403671875,12.14001171875,35.7626553671875,11.38379171875C36.0773913671875,10.640531718750001,36.4634213671875,9.929471718750001,36.9153113671875,9.26068171875C37.3640113671875,8.59677171875,37.8750813671875,7.97711171875,38.441561367187504,7.41040171875C39.0082113671875,6.84399171875,39.6276313671875,6.33282171875,40.2914113671875,5.88406171875C40.9604413671875,5.43240171875,41.6716113671875,5.0463517187499995,42.4150013671875,4.73156771875C43.171211367187496,4.41220071875,43.9570913671875,4.16821271875,44.7612513671875,4.00326571875C45.5902513671875,3.83419801875,46.434151367187496,3.74920654275,47.2801513671875,3.74951171875C48.126351367187496,3.74920654275,48.9705513671875,3.83419801875,49.7996513671875,4.00326571875C50.6038513671875,4.16821271875,51.3897513671875,4.41204871875,52.1459513671875,4.73156771875C52.8891513671875,5.04651171875,53.6001513671875,5.43240171875,54.2690513671875,5.88406171875C54.932851367187496,6.33282171875,55.5523513671875,6.84399171875,56.1192513671875,7.41040171875C56.6856513671875,7.97711171875,57.1967513671875,8.59677171875,57.645451367187505,9.26068171875C58.097251367187496,9.929621718749999,58.4832513671875,10.640531718750001,58.7981513671875,11.38379171875C59.117751367187495,12.14001171875,59.3616513671875,12.92615171875,59.526451367187505,13.73044171875C59.6954513671875,14.55941171875,59.780451367187496,15.40341171875,59.7801513671875,16.24951171875C59.780451367187496,17.09561171875,59.6954513671875,17.93971171875,59.5263513671875,18.768711718749998C59.3617513671875,19.57291171875,59.117751367187495,20.35881171875,58.7981513671875,21.11491171875C58.483351367187495,21.85831171875,58.0973513671875,22.56951171875,57.645451367187505,23.23851171875C57.1967513671875,23.90221171875,56.6856513671875,24.52161171875,56.1192513671875,25.08831171875C55.552551367187505,25.65491171875,54.9330513671875,26.16601171875,54.2690513671875,26.61461171875C53.6002513671875,27.06661171875,52.8892513671875,27.45251171875,52.1459513671875,27.76711171875C51.3897513671875,28.08681171875,50.6038513671875,28.33091171875,49.7996513671875,28.49591171875C48.9715513671875,28.66451171875,48.1275513671875,28.74951171875,47.2801513671875,28.74951171875C46.4340513671875,28.74971171875,45.5900513671875,28.66481171875,44.760931367187496,28.49601171875ZM43.3876513671875,7.03534171875C42.7929913671875,7.28696171875,42.2241813671875,7.59579171875,41.6892213671875,7.95727171875C41.1579513671875,8.31616171875,40.6623113671875,8.72510171875,40.2090613671875,9.17843171875C39.7558313671875,9.63193171875,39.3469513671875,10.12753171875,38.9879613671875,10.65854171875C38.6265013671875,11.193511718749999,38.3177713671875,11.76236171875,38.0660813671875,12.35699171875C37.5448513671875,13.58838171875,37.2775313671875,14.91241171875,37.2801513671875,16.24951171875C37.2776013671875,17.58661171875,37.5449713671875,18.910611718749998,38.0662413671875,20.14201171875C38.3179813671875,20.73671171875,38.6267113671875,21.30551171875,38.9881213671875,21.84051171875C39.3472213671875,22.37151171875,39.7561013671875,22.86711171875,40.2092213671875,23.32061171875C40.662661367187496,23.77391171875,41.1583013671875,24.18271171875,41.6893813671875,24.54171171875C42.2244613671875,24.90311171875,42.7932613671875,25.21191171875,43.387811367187496,25.46371171875C44.6191713671875,25.98491171875,45.9430513671875,26.25211171875,47.2801513671875,26.24951171875C48.617351367187496,26.25191171875,49.9412513671875,25.98461171875,51.1726513671875,25.46341171875C51.7673513671875,25.21161171875,52.3362513671875,24.90281171875,52.8713513671875,24.54141171875C53.4023513671875,24.18211171875,53.8979513671875,23.77331171875,54.3515513671875,23.32031171875C54.8046513671875,22.86691171875,55.2135513671875,22.37131171875,55.572651367187504,21.84021171875C55.933951367187504,21.30501171875,56.2426513671875,20.73621171875,56.4945513671875,20.14171171875C57.0155513671875,18.910311718750002,57.2827513671875,17.58661171875,57.2801513671875,16.24951171875C57.282851367187504,14.91241171875,57.0156513671875,13.58853171875,56.4945513671875,12.35715171875C56.242751367187495,11.76266171875,55.9340513671875,11.19382171875,55.572651367187504,10.65869171875C55.213651367187495,10.12768171875,54.8047513671875,9.632081718750001,54.3515513671875,9.178591718749999C53.898151367187495,8.72525171875,53.4025513671875,8.31647171875,52.8713513671875,7.95743171875C52.3362513671875,7.59610171875,51.7673513671875,7.28726171875,51.1726513671875,7.03549171875C49.9412513671875,6.51425171875,48.617351367187496,6.24692171875,47.2801513671875,6.24951171875C45.942951367187504,6.24692171875,44.6190613671875,6.51410171875,43.3876513671875,7.03534171875ZM38.6082713671875,16.24951171875C38.6078513671875,15.65041171875,38.6692713671875,15.05311171875,38.7915513671875,14.46671171875C41.4992013671875,14.43101171875,42.3549913671875,14.86871171875,44.0984313671875,15.91981171875C45.9578513671875,17.039611718750002,46.616751367187504,17.982311718749997,49.3371513671875,17.79661171875C51.9718513671875,17.617311718750003,52.920451367187496,15.37271171875,55.8903513671875,15.21221171875C55.9313513671875,15.55661171875,55.9518513671875,15.90311171875,55.9517513671875,16.250011718750002C55.9517513671875,21.03921171875,52.0691513671875,24.92181171875,47.279851367187504,24.92181171875C42.4906813671875,24.92201171875,38.6082713671875,21.03911171875,38.6082713671875,16.24951171875Z" fill="url(#master_svgc_542_023735)" fill-opacity="1"/></g></g></g></g></svg>