<svg xmlns="http://www.w3.org/2000/svg" xmlns:xlink="http://www.w3.org/1999/xlink" fill="none" version="1.1" width="97.56787109375" height="68.085205078125" viewBox="0 0 97.56787109375 68.085205078125"><defs><linearGradient x1="1" y1="0.06541160494089127" x2="0" y2="0.9252025485038757" id="master_svg0_542_029486"><stop offset="0%" stop-color="#00121D" stop-opacity="1"/><stop offset="100%" stop-color="#18799E" stop-opacity="1"/></linearGradient><linearGradient x1="1" y1="0.06541160494089127" x2="0" y2="0.9252025485038757" id="master_svg1_542_029469"><stop offset="0%" stop-color="#18799E" stop-opacity="1"/><stop offset="100%" stop-color="#00121D" stop-opacity="1"/></linearGradient><linearGradient x1="0.5" y1="-0.07887735217809677" x2="0.5" y2="1" id="master_svg2_542_029477"><stop offset="0%" stop-color="#000000" stop-opacity="1"/><stop offset="60.57034730911255%" stop-color="#001C3E" stop-opacity="1"/><stop offset="100%" stop-color="#01B1F7" stop-opacity="1"/></linearGradient><linearGradient x1="0.5" y1="0" x2="0.5" y2="1" id="master_svg3_542_029481"><stop offset="2.142857201397419%" stop-color="#000000" stop-opacity="1"/><stop offset="46.42857015132904%" stop-color="#002646" stop-opacity="1"/><stop offset="64.28571343421936%" stop-color="#0057B5" stop-opacity="1"/><stop offset="86.17864847183228%" stop-color="#09C0FD" stop-opacity="1"/><stop offset="100%" stop-color="#00F7FF" stop-opacity="1"/></linearGradient><linearGradient x1="0.5" y1="0" x2="0.5" y2="1" id="master_svg4_542_029483"><stop offset="0%" stop-color="#00AEFF" stop-opacity="0"/><stop offset="100%" stop-color="#01B1F7" stop-opacity="1"/></linearGradient><filter id="master_svg5_1010_020714" filterUnits="objectBoundingBox" color-interpolation-filters="sRGB" x="-20" y="-12.499999523162842" width="107.5678482055664" height="74.33518600463867"><feFlood flood-opacity="0" result="BackgroundImageFix"/><feColorMatrix in="SourceAlpha" type="matrix" values="0 0 0 0 0 0 0 0 0 0 0 0 0 0 0 0 0 0 127 0"/><feOffset dy="7.500000476837158" dx="0"/><feGaussianBlur stdDeviation="5"/><feColorMatrix type="matrix" values="0 0 0 0 0 0 0 0 0 0 0 0 0 0 0 0 0 0 0.30000001192092896 0"/><feBlend mode="normal" in2="BackgroundImageFix" result="effect1_dropShadow"/><feBlend mode="normal" in="SourceGraphic" in2="effect1_dropShadow" result="shape"/></filter><linearGradient x1="0.5" y1="0" x2="0.5" y2="1" id="master_svg6_542_029472"><stop offset="0%" stop-color="#155BFF" stop-opacity="0"/><stop offset="52.85714268684387%" stop-color="#155BFF" stop-opacity="0.4099999964237213"/><stop offset="83.57142806053162%" stop-color="#15CCFF" stop-opacity="0.8100000023841858"/><stop offset="100%" stop-color="#43FEFC" stop-opacity="1"/></linearGradient><filter id="master_svg7_1010_020720" filterUnits="objectBoundingBox" color-interpolation-filters="sRGB" x="-20" y="-12.499999523162842" width="83.74031448364258" height="68.13375854492188"><feFlood flood-opacity="0" result="BackgroundImageFix"/><feColorMatrix in="SourceAlpha" type="matrix" values="0 0 0 0 0 0 0 0 0 0 0 0 0 0 0 0 0 0 127 0"/><feOffset dy="7.500000476837158" dx="0"/><feGaussianBlur stdDeviation="5"/><feColorMatrix type="matrix" values="0 0 0 0 0 0 0 0 0 0 0 0 0 0 0 0 0 0 0.30000001192092896 0"/><feBlend mode="normal" in2="BackgroundImageFix" result="effect1_dropShadow"/><feBlend mode="normal" in="SourceGraphic" in2="effect1_dropShadow" result="shape"/></filter><linearGradient x1="0.5" y1="0" x2="0.5" y2="1" id="master_svg8_542_029472"><stop offset="0%" stop-color="#155BFF" stop-opacity="0"/><stop offset="52.85714268684387%" stop-color="#155BFF" stop-opacity="0.4099999964237213"/><stop offset="83.57142806053162%" stop-color="#15CCFF" stop-opacity="0.8100000023841858"/><stop offset="100%" stop-color="#43FEFC" stop-opacity="1"/></linearGradient><clipPath id="master_svg9_1010_022900"><rect x="31.030153274536133" y="0" width="30.000001907348633" height="30.000001907348633" rx="0"/></clipPath><linearGradient x1="0.4513073265552521" y1="0.17547607421875" x2="-1.0265923738479614" y2="1.3411712646484375" id="master_svga_542_023732"><stop offset="0%" stop-color="#0144BF" stop-opacity="1"/><stop offset="100%" stop-color="#ACFFFE" stop-opacity="1"/></linearGradient><clipPath id="master_svgb_1010_022901"><rect x="32.28015327453613" y="1.25" width="30.000001907348633" height="30.000001907348633" rx="0"/></clipPath><linearGradient x1="0.5" y1="0" x2="0.5" y2="1" id="master_svgc_542_023735"><stop offset="0%" stop-color="#D5FEFE" stop-opacity="1"/><stop offset="100%" stop-color="#A9F2FF" stop-opacity="1"/></linearGradient></defs><g><g><g><path d="M46.979400634765625,56.39436544342041L46.979400634765625,58.74996544342041L86.67860063476562,44.12575544342041L86.67860063476562,41.77016544342041L46.979400634765625,56.39436544342041Z" fill="url(#master_svg0_542_029486)" fill-opacity="1"/></g><g transform="matrix(1,0,0,-1,0,117.49985694885254)"><path d="M7.2801513671875,73.37412847442627L7.2801513671875,75.72972847442627L46.9793513671875,61.10551847442627L46.9793513671875,58.74992847442627L7.2801513671875,73.37412847442627Z" fill="url(#master_svg1_542_029469)" fill-opacity="1"/></g><g><rect x="46.695682525634766" y="56.11700916290283" width="0.5844690203666687" height="2.543347120285034" rx="0" fill="#01CEF7" fill-opacity="1"/></g><g><path d="M47.2413513671875,27.363627522399902Q46.9785513671875,27.2557855223999,46.7161513671875,27.365021522399903L8.0426803671875,43.469624522399904Q7.6098623671875,43.6498245223999,7.6196213671875,44.1186245223999Q7.6293803671875,44.5873245223999,8.0693263671875,44.749424522399906L46.7427513671875,58.995724522399904Q46.9785513671875,59.082624522399904,47.2148513671875,58.9969245223999L86.4743513671875,44.7505245223999Q86.9174513671875,44.589724522399905,86.9271513671875,44.118424522399906Q86.9368513671875,43.647124522399906,86.5007513671875,43.4682245223999L47.2413513671875,27.363627522399902ZM8.282941367187501,44.0466245223999L46.9564513671875,27.9419935223999Q46.9802513671875,27.932063522399904,47.0041513671875,27.941867522399903L86.2635513671875,44.0464245223999Q86.3032513671875,44.062724522399904,86.3023513671875,44.105524522399904Q86.3014513671875,44.14842452239991,86.2611513671875,44.1630245223999L47.0016513671875,58.4094245223999Q46.9802513671875,58.417224522399906,46.9587513671875,58.4093245223999L8.2853713671875,44.162924522399905Q8.2453733671875,44.1482245223999,8.2444863671875,44.10562452239991Q8.2435983671875,44.0630245223999,8.282941367187501,44.0466245223999Z" fill-rule="evenodd" fill="url(#master_svg2_542_029477)" fill-opacity="1"/></g><g><path d="M8.1628133671875,41.402609996032716C7.8480363671875,41.53370999603271,7.8573873671875,41.982809996032714,8.1773473671875,42.10070999603272L46.8507513671875,56.34700999603271C46.9338513671875,56.37760999603272,47.0250513671875,56.37780999603271,47.1082513671875,56.347609996032716L86.3677513671875,42.101209996032715C86.6900513671875,41.984309996032714,86.6993513671875,41.53190999603272,86.3821513671875,41.40180999603271L47.1227513671875,25.297232696032715C47.0309513671875,25.259562896032715,46.9279513671875,25.259836396032714,46.8363513671875,25.297993096032716L8.1628133671875,41.402609996032716Z" fill="url(#master_svg3_542_029481)" fill-opacity="1"/><path d="M47.2413513671875,25.008112996032715Q46.9785513671875,24.900270996032713,46.7161513671875,25.009506996032716L8.0426803671875,41.11410999603272Q7.6098623671875,41.294309996032716,7.6196213671875,41.76310999603271Q7.6293803671875,42.231809996032716,8.0693263671875,42.39390999603272L46.7427513671875,56.640209996032716Q46.9785513671875,56.727109996032716,47.2148513671875,56.64140999603271L86.4743513671875,42.39500999603271Q86.9174513671875,42.23420999603272,86.9271513671875,41.76290999603272Q86.9368513671875,41.29160999603272,86.5007513671875,41.11270999603271L47.2413513671875,25.008112996032715ZM8.282941367187501,41.691109996032715L46.9564513671875,25.586478996032714Q46.9802513671875,25.576548996032717,47.0041513671875,25.586352996032716L86.2635513671875,41.690909996032715Q86.3032513671875,41.70720999603272,86.3023513671875,41.750009996032716Q86.3014513671875,41.79290999603272,86.2611513671875,41.807509996032714L47.0016513671875,56.053909996032715Q46.9802513671875,56.06170999603272,46.9587513671875,56.05380999603271L8.2853713671875,41.80740999603272Q8.2453733671875,41.79270999603271,8.2444863671875,41.75010999603272Q8.2435983671875,41.70750999603271,8.282941367187501,41.691109996032715Z" fill-rule="evenodd" fill="url(#master_svg4_542_029483)" fill-opacity="1"/></g><g filter="url(#master_svg5_1010_020714)"><path d="M14.999988555908203,11.250000953674316L22.259348555908204,36.113400953674315L47.387888555908205,45.58520095367432L74.1916885559082,36.113400953674315L82.56778855590821,11.250000953674316L14.999988555908203,11.250000953674316Z" fill="url(#master_svg6_542_029472)" fill-opacity="1"/></g><g filter="url(#master_svg7_1010_020720)"><path d="M26.91375732421875,13.07904064655304L31.613127324218752,33.451740646553034L47.88015732421875,41.21284064655304L65.23175732421875,33.451740646553034L70.65405732421874,13.07904064655304L26.91375732421875,13.07904064655304Z" fill="url(#master_svg8_542_029472)" fill-opacity="1"/></g></g><g><g clip-path="url(#master_svg9_1010_022900)"><g><path d="M54.368153274536134,26.2502C52.81825327453613,26.2502,52.63065327453613,27.5002,50.20545327453613,27.5002C47.81815327453613,27.5002,47.53045327453613,26.2502,46.04275327453613,26.2502C44.492953274536134,26.2502,44.305253274536135,27.5002,41.86780327453613,27.5002C39.43030327453613,27.5002,39.25546327453613,26.2502,37.70515327453613,26.2502C36.16764327453613,26.2502,35.96765327453613,27.5002,33.53015327453613,27.5002L33.53015327453613,25.0002C35.08031327453613,25.0002,35.26765327453613,23.7502,37.70515327453613,23.7502C40.142643274536134,23.7502,40.31796327453613,25.0002,41.86780327453613,25.0002C43.417653274536136,25.0002,43.605353274536135,23.7502,46.04275327453613,23.7502C48.430453274536134,23.7502,48.718153274536135,25.0002,50.20545327453613,25.0002C51.75565327453613,25.0002,51.930653274536134,23.7502,54.368153274536134,23.7502C56.805653274536134,23.7502,56.98045327453613,25.0002,58.53075327453613,25.0002L58.53075327453613,27.5002C56.14315327453613,27.5002,55.855753274536134,26.2502,54.368153274536134,26.2502ZM58.50595327453613,22.5002Q55.855753274536134,21.2502,54.368153274536134,21.2502C52.81825327453613,21.2502,52.64295327453613,22.5002,50.20545327453613,22.5002C47.81815327453613,22.5002,47.53045327453613,21.2502,46.04275327453613,21.2502C44.492953274536134,21.2502,44.31815327453613,22.5002,41.88061327453613,22.5002C39.492953274536134,22.5002,39.20529327453613,21.2502,37.717953274536136,21.2502C36.243113274536135,21.2502,35.90546327453613,22.5002,33.53045845053613,22.5002L33.53045845053613,20.0002C35.080613274536134,20.0002,35.25561327453613,18.7502,37.69311327453613,18.7502C40.080773274536135,18.7502,40.368113274536135,20.0002,41.85577327453613,20.0002C43.40561327453614,20.0002,43.580953274536135,18.7502,46.018453274536135,18.7502C48.40575327453613,18.7502,48.69345327453613,20.0002,50.180653274536134,20.0002C51.730753274536134,20.0002,51.90575327453613,18.7502,54.34325327453613,18.7502C56.730953274536134,18.7502,57.018253274536136,20.0002,58.50595327453613,20.0002L58.50595327453613,22.5002L58.50595327453613,22.5002ZM40.56186327453614,10.61279Q40.56186327453614,7.18842,46.06185327453613,2.5Q51.55875327453613,7.19254,51.56185327453613,10.61279C51.56185327453613,14.0364,48.94955327453613,16.2503,46.06185327453613,16.2503C43.17420327453613,16.2503,40.56186327453614,14.0364,40.56186327453614,10.61279ZM42.68685327453613,11.34827C43.07841327453613,13.4316,44.790453274536134,14.2702,46.254953274536135,14.1806C46.530653274536135,14.1673,46.74785327453613,13.941,46.749853274536136,13.665C46.74935327453613,13.3696,46.50185327453613,13.1346,46.20685327453613,13.1494C44.98295327453613,13.2545,43.887853274536134,12.39105,43.70455327453613,11.17645C43.66115327453613,10.92957,43.44647327453613,10.74967,43.195763274536134,10.75012C42.87806327453613,10.75028,42.63599327453613,11.0347,42.68685327453613,11.34827Z" fill="url(#master_svga_542_023732)" fill-opacity="1"/></g></g><g clip-path="url(#master_svgb_1010_022901)"><g><path d="M55.618153274536134,27.5002C54.06825327453613,27.5002,53.88065327453613,28.7502,51.45545327453613,28.7502C49.06815327453613,28.7502,48.78045327453613,27.5002,47.29275327453613,27.5002C45.742953274536134,27.5002,45.555253274536135,28.7502,43.11780327453613,28.7502C40.68030327453613,28.7502,40.50546327453613,27.5002,38.95515327453613,27.5002C37.41764327453613,27.5002,37.21765327453613,28.7502,34.78015327453613,28.7502L34.78015327453613,26.2502C36.33031327453613,26.2502,36.51765327453613,25.0002,38.95515327453613,25.0002C41.392643274536134,25.0002,41.56796327453613,26.2502,43.11780327453613,26.2502C44.667653274536136,26.2502,44.855353274536135,25.0002,47.29275327453613,25.0002C49.680453274536134,25.0002,49.968153274536135,26.2502,51.45545327453613,26.2502C53.00565327453613,26.2502,53.180653274536134,25.0002,55.618153274536134,25.0002C58.055653274536134,25.0002,58.23045327453613,26.2502,59.78075327453613,26.2502L59.78075327453613,28.7502C57.39315327453613,28.7502,57.105753274536134,27.5002,55.618153274536134,27.5002ZM59.75595327453613,23.7502Q57.105753274536134,22.5002,55.618153274536134,22.5002C54.06825327453613,22.5002,53.89295327453613,23.7502,51.45545327453613,23.7502C49.06815327453613,23.7502,48.78045327453613,22.5002,47.29275327453613,22.5002C45.742953274536134,22.5002,45.56815327453613,23.7502,43.13061327453613,23.7502C40.742953274536134,23.7502,40.45529327453613,22.5002,38.967953274536136,22.5002C37.493113274536135,22.5002,37.15546327453613,23.7502,34.78045845053613,23.7502L34.78045845053613,21.2502C36.330613274536134,21.2502,36.50561327453613,20.0002,38.94311327453613,20.0002C41.330773274536135,20.0002,41.618113274536135,21.2502,43.10577327453613,21.2502C44.65561327453614,21.2502,44.830953274536135,20.0002,47.268453274536135,20.0002C49.65575327453613,20.0002,49.94345327453613,21.2502,51.430653274536134,21.2502C52.980753274536134,21.2502,53.15575327453613,20.0002,55.59325327453613,20.0002C57.980953274536134,20.0002,58.268253274536136,21.2502,59.75595327453613,21.2502L59.75595327453613,23.7502L59.75595327453613,23.7502ZM41.81186327453614,11.86279Q41.81186327453614,8.43842,47.31185327453613,3.75Q52.80875327453613,8.442540000000001,52.81185327453613,11.86279C52.81185327453613,15.2864,50.19955327453613,17.5003,47.31185327453613,17.5003C44.42420327453613,17.5003,41.81186327453614,15.2864,41.81186327453614,11.86279ZM43.93685327453613,12.59827C44.32841327453613,14.6816,46.040453274536134,15.5202,47.504953274536135,15.4306C47.780653274536135,15.4173,47.99785327453613,15.191,47.999853274536136,14.915C47.99935327453613,14.6196,47.75185327453613,14.3846,47.45685327453613,14.3994C46.23295327453613,14.5045,45.137853274536134,13.64105,44.95455327453613,12.42645C44.91115327453613,12.17957,44.69647327453613,11.99967,44.445763274536134,12.00012C44.12806327453613,12.00028,43.88599327453613,12.2847,43.93685327453613,12.59827Z" fill="url(#master_svgc_542_023735)" fill-opacity="1"/></g></g></g></g></svg>