<svg xmlns="http://www.w3.org/2000/svg" xmlns:xlink="http://www.w3.org/1999/xlink" fill="none" version="1.1" width="80" height="59.03955078125" viewBox="0 0 80 59.03955078125"><defs><linearGradient x1="0.032243162393569946" y1="0.9457089304924011" x2="1" y2="0.09897638857364655" id="master_svg0_1836_042146"><stop offset="0%" stop-color="#65D1FA" stop-opacity="1"/><stop offset="99.99998211860657%" stop-color="#1167FF" stop-opacity="1"/></linearGradient><linearGradient x1="1" y1="0.06541160494089127" x2="0" y2="0.9252025485038757" id="master_svg1_1836_041894"><stop offset="0%" stop-color="#65D1FA" stop-opacity="1"/><stop offset="100%" stop-color="#1167FF" stop-opacity="1"/></linearGradient><linearGradient x1="0.5" y1="-0.07887735217809677" x2="0.5" y2="1" id="master_svg2_1836_040840"><stop offset="0%" stop-color="#DEDEDE" stop-opacity="1"/><stop offset="61.42857074737549%" stop-color="#0062D9" stop-opacity="1"/><stop offset="97.85714149475098%" stop-color="#34B8ED" stop-opacity="1"/></linearGradient><linearGradient x1="0.5" y1="0" x2="0.5" y2="1" id="master_svg3_1836_078508"><stop offset="2.142857201397419%" stop-color="#FFFFFF" stop-opacity="1"/><stop offset="46.42857015132904%" stop-color="#63B8FF" stop-opacity="1"/><stop offset="64.28571343421936%" stop-color="#68B0FF" stop-opacity="1"/><stop offset="82.85714387893677%" stop-color="#7ACEFC" stop-opacity="1"/><stop offset="99.28571581840515%" stop-color="#8DD0FF" stop-opacity="1"/></linearGradient><linearGradient x1="0.5" y1="0" x2="0.5" y2="1" id="master_svg4_542_029483"><stop offset="0%" stop-color="#00AEFF" stop-opacity="0"/><stop offset="100%" stop-color="#01B1F7" stop-opacity="1"/></linearGradient><linearGradient x1="0.5" y1="-3.0616171314629196e-17" x2="0.5" y2="1" id="master_svg5_1836_042693"><stop offset="0%" stop-color="#6FD6FF" stop-opacity="0"/><stop offset="100%" stop-color="#0095FF" stop-opacity="0.4745098054409027"/></linearGradient><linearGradient x1="0.5" y1="-3.0616171314629196e-17" x2="0.5" y2="1" id="master_svg6_1836_077978"><stop offset="0%" stop-color="#6FD6FF" stop-opacity="0"/><stop offset="100%" stop-color="#288EE2" stop-opacity="0.4745098054409027"/></linearGradient><clipPath id="master_svg7_1836_080374"><rect x="23.750001907348633" y="0" width="30.000001907348633" height="30.000001907348633" rx="0"/></clipPath><clipPath id="master_svg8_1836_080373"><rect x="25.000001907348633" y="1.25" width="30.000001907348633" height="30.000001907348633" rx="0"/></clipPath><linearGradient x1="0.5" y1="0" x2="0.5" y2="1" id="master_svg9_1836_078930"><stop offset="4.285714402794838%" stop-color="#71C0FD" stop-opacity="1"/><stop offset="100%" stop-color="#1A73FE" stop-opacity="1"/></linearGradient></defs><g><g><g><path d="M39.699249267578125,56.39436544342041L39.699249267578125,58.74996544342041L79.39844926757812,44.12575544342041L79.39844926757812,41.77016544342041L39.699249267578125,56.39436544342041Z" fill="url(#master_svg0_1836_042146)" fill-opacity="1"/></g><g transform="matrix(1,0,0,-1,0,117.49985694885254)"><path d="M0,73.37412847442627L0,75.72972847442627L39.6992,61.10551847442627L39.6992,58.74992847442627L0,73.37412847442627Z" fill="url(#master_svg1_1836_041894)" fill-opacity="1"/></g><g><rect x="39.415531158447266" y="56.11700916290283" width="0.5844690203666687" height="2.543347120285034" rx="0" fill="#01CEF7" fill-opacity="1"/></g><g><path d="M39.9612,27.363627522399902Q39.6984,27.2557855223999,39.436,27.365021522399903L0.762529,43.469624522399904Q0.329711,43.6498245223999,0.33947,44.1186245223999Q0.349229,44.5873245223999,0.789175,44.749424522399906L39.4626,58.995724522399904Q39.6984,59.082624522399904,39.9347,58.9969245223999L79.1942,44.7505245223999Q79.6373,44.589724522399905,79.647,44.118424522399906Q79.6567,43.647124522399906,79.2206,43.4682245223999L39.9612,27.363627522399902ZM1.00279,44.0466245223999L39.6763,27.9419935223999Q39.7001,27.932063522399904,39.724,27.941867522399903L78.9834,44.0464245223999Q79.0231,44.062724522399904,79.0222,44.105524522399904Q79.0213,44.14842452239991,78.981,44.1630245223999L39.7215,58.4094245223999Q39.7001,58.417224522399906,39.6786,58.4093245223999L1.00522,44.162924522399905Q0.965222,44.1482245223999,0.964335,44.10562452239991Q0.963447,44.0630245223999,1.00279,44.0466245223999Z" fill-rule="evenodd" fill="url(#master_svg2_1836_040840)" fill-opacity="1"/></g><g><path d="M0.882662,41.402609996032716C0.567885,41.53370999603271,0.577236,41.982809996032714,0.897196,42.10070999603272L39.5706,56.34700999603271C39.6537,56.37760999603272,39.7449,56.37780999603271,39.8281,56.347609996032716L79.0876,42.101209996032715C79.4099,41.984309996032714,79.4192,41.53190999603272,79.102,41.40180999603271L39.8426,25.297232696032715C39.7508,25.259562896032715,39.6478,25.259836396032714,39.5562,25.297993096032716L0.882662,41.402609996032716Z" fill="url(#master_svg3_1836_078508)" fill-opacity="1"/><path d="M39.9612,25.008112996032715Q39.6984,24.900270996032713,39.436,25.009506996032716L0.762529,41.11410999603272Q0.329711,41.294309996032716,0.33947,41.76310999603271Q0.349229,42.231809996032716,0.789175,42.39390999603272L39.4626,56.640209996032716Q39.6984,56.727109996032716,39.9347,56.64140999603271L79.1942,42.39500999603271Q79.6373,42.23420999603272,79.647,41.76290999603272Q79.6567,41.29160999603272,79.2206,41.11270999603271L39.9612,25.008112996032715ZM1.00279,41.691109996032715L39.6763,25.586478996032714Q39.7001,25.576548996032717,39.724,25.586352996032716L78.9834,41.690909996032715Q79.0231,41.70720999603272,79.0222,41.750009996032716Q79.0213,41.79290999603272,78.981,41.807509996032714L39.7215,56.053909996032715Q39.7001,56.06170999603272,39.6786,56.05380999603271L1.00522,41.80740999603272Q0.965222,41.79270999603271,0.964335,41.75010999603272Q0.963447,41.70750999603271,1.00279,41.691109996032715Z" fill-rule="evenodd" fill="url(#master_svg4_542_029483)" fill-opacity="1"/></g><g><path d="M7.719837188720703,11.250000953674316L14.979197188720704,36.113400953674315L40.107737188720705,45.58520095367432L66.9115371887207,36.113400953674315L75.28763718872071,11.250000953674316L7.719837188720703,11.250000953674316Z" fill="url(#master_svg5_1836_042693)" fill-opacity="1"/></g><g><path d="M19.63360595703125,13.07904064655304L24.332975957031252,33.451740646553034L40.60000595703125,41.21284064655304L57.95160595703125,33.451740646553034L63.37390595703125,13.07904064655304L19.63360595703125,13.07904064655304Z" fill="url(#master_svg6_1836_077978)" fill-opacity="1"/></g></g><g><g clip-path="url(#master_svg7_1836_080374)"><g><path d="M47.088001907348634,26.2502C45.53810190734863,26.2502,45.35050190734863,27.5002,42.92530190734863,27.5002C40.53800190734863,27.5002,40.25030190734863,26.2502,38.76260190734863,26.2502C37.212801907348634,26.2502,37.025101907348635,27.5002,34.58765190734863,27.5002C32.15015190734863,27.5002,31.975311907348633,26.2502,30.425001907348634,26.2502C28.887491907348632,26.2502,28.687501907348633,27.5002,26.250001907348633,27.5002L26.250001907348633,25.0002C27.80016190734863,25.0002,27.987501907348634,23.7502,30.425001907348634,23.7502C32.862491907348634,23.7502,33.03781190734863,25.0002,34.58765190734863,25.0002C36.137501907348636,25.0002,36.325201907348635,23.7502,38.76260190734863,23.7502C41.150301907348634,23.7502,41.438001907348635,25.0002,42.92530190734863,25.0002C44.47550190734863,25.0002,44.650501907348634,23.7502,47.088001907348634,23.7502C49.525501907348634,23.7502,49.70030190734863,25.0002,51.25060190734863,25.0002L51.25060190734863,27.5002C48.86300190734863,27.5002,48.575601907348634,26.2502,47.088001907348634,26.2502ZM51.22580190734863,22.5002Q48.575601907348634,21.2502,47.088001907348634,21.2502C45.53810190734863,21.2502,45.36280190734863,22.5002,42.92530190734863,22.5002C40.53800190734863,22.5002,40.25030190734863,21.2502,38.76260190734863,21.2502C37.212801907348634,21.2502,37.03800190734863,22.5002,34.60046190734863,22.5002C32.212801907348634,22.5002,31.92514190734863,21.2502,30.437801907348632,21.2502C28.96296190734863,21.2502,28.62531190734863,22.5002,26.250307083348634,22.5002L26.250307083348634,20.0002C27.800461907348634,20.0002,27.97546190734863,18.7502,30.41296190734863,18.7502C32.800621907348635,18.7502,33.087961907348635,20.0002,34.57562190734863,20.0002C36.12546190734864,20.0002,36.300801907348635,18.7502,38.738301907348635,18.7502C41.12560190734863,18.7502,41.41330190734863,20.0002,42.900501907348634,20.0002C44.450601907348634,20.0002,44.62560190734863,18.7502,47.06310190734863,18.7502C49.450801907348634,18.7502,49.738101907348636,20.0002,51.22580190734863,20.0002L51.22580190734863,22.5002L51.22580190734863,22.5002ZM33.28171190734864,10.61279Q33.28171190734864,7.18842,38.78170190734863,2.5Q44.27860190734863,7.19254,44.28170190734863,10.61279C44.28170190734863,14.0364,41.66940190734863,16.2503,38.78170190734863,16.2503C35.89405190734863,16.2503,33.28171190734864,14.0364,33.28171190734864,10.61279ZM35.40670190734863,11.34827C35.79826190734863,13.4316,37.510301907348634,14.2702,38.974801907348635,14.1806C39.250501907348635,14.1673,39.46770190734863,13.941,39.469701907348636,13.665C39.46920190734863,13.3696,39.22170190734863,13.1346,38.92670190734863,13.1494C37.70280190734863,13.2545,36.607701907348634,12.39105,36.42440190734863,11.17645C36.38100190734863,10.92957,36.16632190734863,10.74967,35.915611907348634,10.75012C35.59791190734863,10.75028,35.35584190734863,11.0347,35.40670190734863,11.34827Z" fill="#9CD1FC" fill-opacity="1"/></g></g><g clip-path="url(#master_svg8_1836_080373)"><g><path d="M48.338001907348634,27.5002C46.78810190734863,27.5002,46.60050190734863,28.7502,44.17530190734863,28.7502C41.78800190734863,28.7502,41.50030190734863,27.5002,40.01260190734863,27.5002C38.462801907348634,27.5002,38.275101907348635,28.7502,35.83765190734863,28.7502C33.40015190734863,28.7502,33.22531190734863,27.5002,31.675001907348634,27.5002C30.137491907348632,27.5002,29.937501907348633,28.7502,27.500001907348633,28.7502L27.500001907348633,26.2502C29.05016190734863,26.2502,29.237501907348634,25.0002,31.675001907348634,25.0002C34.112491907348634,25.0002,34.28781190734863,26.2502,35.83765190734863,26.2502C37.387501907348636,26.2502,37.575201907348635,25.0002,40.01260190734863,25.0002C42.400301907348634,25.0002,42.688001907348635,26.2502,44.17530190734863,26.2502C45.72550190734863,26.2502,45.900501907348634,25.0002,48.338001907348634,25.0002C50.775501907348634,25.0002,50.95030190734863,26.2502,52.50060190734863,26.2502L52.50060190734863,28.7502C50.11300190734863,28.7502,49.825601907348634,27.5002,48.338001907348634,27.5002ZM52.47580190734863,23.7502Q49.825601907348634,22.5002,48.338001907348634,22.5002C46.78810190734863,22.5002,46.61280190734863,23.7502,44.17530190734863,23.7502C41.78800190734863,23.7502,41.50030190734863,22.5002,40.01260190734863,22.5002C38.462801907348634,22.5002,38.28800190734863,23.7502,35.85046190734863,23.7502C33.462801907348634,23.7502,33.17514190734863,22.5002,31.687801907348632,22.5002C30.21296190734863,22.5002,29.87531190734863,23.7502,27.500307083348634,23.7502L27.500307083348634,21.2502C29.050461907348634,21.2502,29.22546190734863,20.0002,31.66296190734863,20.0002C34.050621907348635,20.0002,34.337961907348635,21.2502,35.82562190734863,21.2502C37.37546190734864,21.2502,37.550801907348635,20.0002,39.988301907348635,20.0002C42.37560190734863,20.0002,42.66330190734863,21.2502,44.150501907348634,21.2502C45.700601907348634,21.2502,45.87560190734863,20.0002,48.31310190734863,20.0002C50.700801907348634,20.0002,50.988101907348636,21.2502,52.47580190734863,21.2502L52.47580190734863,23.7502L52.47580190734863,23.7502ZM34.53171190734864,11.86279Q34.53171190734864,8.43842,40.03170190734863,3.75Q45.52860190734863,8.442540000000001,45.53170190734863,11.86279C45.53170190734863,15.2864,42.91940190734863,17.5003,40.03170190734863,17.5003C37.14405190734863,17.5003,34.53171190734864,15.2864,34.53171190734864,11.86279ZM36.65670190734863,12.59827C37.04826190734863,14.6816,38.760301907348634,15.5202,40.224801907348635,15.4306C40.500501907348635,15.4173,40.71770190734863,15.191,40.719701907348636,14.915C40.71920190734863,14.6196,40.47170190734863,14.3846,40.17670190734863,14.3994C38.95280190734863,14.5045,37.857701907348634,13.64105,37.67440190734863,12.42645C37.63100190734863,12.17957,37.41632190734863,11.99967,37.165611907348634,12.00012C36.84791190734863,12.00028,36.60584190734863,12.2847,36.65670190734863,12.59827Z" fill="url(#master_svg9_1836_078930)" fill-opacity="1"/></g></g></g></g></svg>