<svg xmlns="http://www.w3.org/2000/svg" xmlns:xlink="http://www.w3.org/1999/xlink" fill="none" version="1.1" width="80" height="59.03955078125" viewBox="0 0 80 59.03955078125"><defs><linearGradient x1="0.032243162393569946" y1="0.9457089304924011" x2="1" y2="0.09897638857364655" id="master_svg0_1836_042146"><stop offset="0%" stop-color="#65D1FA" stop-opacity="1"/><stop offset="99.99998211860657%" stop-color="#1167FF" stop-opacity="1"/></linearGradient><linearGradient x1="1" y1="0.06541160494089127" x2="0" y2="0.9252025485038757" id="master_svg1_1836_041894"><stop offset="0%" stop-color="#65D1FA" stop-opacity="1"/><stop offset="100%" stop-color="#1167FF" stop-opacity="1"/></linearGradient><linearGradient x1="0.5" y1="-0.07887735217809677" x2="0.5" y2="1" id="master_svg2_1836_040840"><stop offset="0%" stop-color="#DEDEDE" stop-opacity="1"/><stop offset="61.42857074737549%" stop-color="#0062D9" stop-opacity="1"/><stop offset="97.85714149475098%" stop-color="#34B8ED" stop-opacity="1"/></linearGradient><linearGradient x1="0.5" y1="0" x2="0.5" y2="1" id="master_svg3_1836_078508"><stop offset="2.142857201397419%" stop-color="#FFFFFF" stop-opacity="1"/><stop offset="46.42857015132904%" stop-color="#63B8FF" stop-opacity="1"/><stop offset="64.28571343421936%" stop-color="#68B0FF" stop-opacity="1"/><stop offset="82.85714387893677%" stop-color="#7ACEFC" stop-opacity="1"/><stop offset="99.28571581840515%" stop-color="#8DD0FF" stop-opacity="1"/></linearGradient><linearGradient x1="0.5" y1="0" x2="0.5" y2="1" id="master_svg4_542_029483"><stop offset="0%" stop-color="#00AEFF" stop-opacity="0"/><stop offset="100%" stop-color="#01B1F7" stop-opacity="1"/></linearGradient><linearGradient x1="0.5" y1="-3.0616171314629196e-17" x2="0.5" y2="1" id="master_svg5_1836_042693"><stop offset="0%" stop-color="#6FD6FF" stop-opacity="0"/><stop offset="100%" stop-color="#0095FF" stop-opacity="0.4745098054409027"/></linearGradient><linearGradient x1="0.5" y1="-3.0616171314629196e-17" x2="0.5" y2="1" id="master_svg6_1836_077978"><stop offset="0%" stop-color="#6FD6FF" stop-opacity="0"/><stop offset="100%" stop-color="#288EE2" stop-opacity="0.4745098054409027"/></linearGradient><clipPath id="master_svg7_1836_080378"><rect x="23.75" y="0" width="30" height="30" rx="0"/></clipPath><clipPath id="master_svg8_1836_080377"><rect x="25" y="1.25" width="30" height="30" rx="0"/></clipPath><linearGradient x1="0.5" y1="0" x2="0.5" y2="1" id="master_svg9_1836_078930"><stop offset="4.285714402794838%" stop-color="#71C0FD" stop-opacity="1"/><stop offset="100%" stop-color="#1A73FE" stop-opacity="1"/></linearGradient></defs><g><g><g><path d="M39.699249267578125,56.394364489746096L39.699249267578125,58.74996448974609L79.39844926757812,44.12575448974609L79.39844926757812,41.770164489746094L39.699249267578125,56.394364489746096Z" fill="url(#master_svg0_1836_042146)" fill-opacity="1"/></g><g transform="matrix(1,0,0,-1,0,117.4998550415039)"><path d="M0,73.37412752075195L0,75.72972752075195L39.6992,61.10551752075195L39.6992,58.74992752075195L0,73.37412752075195Z" fill="url(#master_svg1_1836_041894)" fill-opacity="1"/></g><g><rect x="39.415531158447266" y="56.117008209228516" width="0.5844690203666687" height="2.543347120285034" rx="0" fill="#01CEF7" fill-opacity="1"/></g><g><path d="M39.9612,27.363626568725586Q39.6984,27.255784568725584,39.436,27.365020568725587L0.762529,43.46962356872559Q0.329711,43.64982356872559,0.33947,44.11862356872558Q0.349229,44.58732356872559,0.789175,44.74942356872559L39.4626,58.99572356872559Q39.6984,59.08262356872559,39.9347,58.996923568725585L79.1942,44.75052356872558Q79.6373,44.58972356872559,79.647,44.11842356872559Q79.6567,43.64712356872559,79.2206,43.468223568725584L39.9612,27.363626568725586ZM1.00279,44.046623568725586L39.6763,27.941992568725585Q39.7001,27.932062568725588,39.724,27.941866568725587L78.9834,44.04642356872559Q79.0231,44.06272356872559,79.0222,44.10552356872559Q79.0213,44.14842356872559,78.981,44.163023568725585L39.7215,58.409423568725586Q39.7001,58.41722356872559,39.6786,58.40932356872558L1.00522,44.16292356872559Q0.965222,44.148223568725584,0.964335,44.10562356872559Q0.963447,44.06302356872558,1.00279,44.046623568725586Z" fill-rule="evenodd" fill="url(#master_svg2_1836_040840)" fill-opacity="1"/></g><g><path d="M0.882662,41.4026090423584C0.567885,41.533709042358396,0.577236,41.9828090423584,0.897196,42.1007090423584L39.5706,56.347009042358394C39.6537,56.3776090423584,39.7449,56.37780904235839,39.8281,56.3476090423584L79.0876,42.1012090423584C79.4099,41.9843090423584,79.4192,41.5319090423584,79.102,41.401809042358394L39.8426,25.2972317423584C39.7508,25.2595619423584,39.6478,25.259835442358398,39.5562,25.2979921423584L0.882662,41.4026090423584Z" fill="url(#master_svg3_1836_078508)" fill-opacity="1"/><path d="M39.9612,25.0081120423584Q39.6984,24.900270042358397,39.436,25.0095060423584L0.762529,41.1141090423584Q0.329711,41.2943090423584,0.33947,41.763109042358394Q0.349229,42.2318090423584,0.789175,42.3939090423584L39.4626,56.6402090423584Q39.6984,56.7271090423584,39.9347,56.6414090423584L79.1942,42.395009042358396Q79.6373,42.2342090423584,79.647,41.7629090423584Q79.6567,41.2916090423584,79.2206,41.1127090423584L39.9612,25.0081120423584ZM1.00279,41.6911090423584L39.6763,25.586478042358397Q39.7001,25.5765480423584,39.724,25.5863520423584L78.9834,41.6909090423584Q79.0231,41.7072090423584,79.0222,41.7500090423584Q79.0213,41.7929090423584,78.981,41.8075090423584L39.7215,56.0539090423584Q39.7001,56.0617090423584,39.6786,56.053809042358395L1.00522,41.8074090423584Q0.965222,41.792709042358396,0.964335,41.7501090423584Q0.963447,41.707509042358396,1.00279,41.6911090423584Z" fill-rule="evenodd" fill="url(#master_svg4_542_029483)" fill-opacity="1"/></g><g><path d="M7.719837188720703,11.25L14.979197188720704,36.1134L40.107737188720705,45.5852L66.9115371887207,36.1134L75.28763718872071,11.25L7.719837188720703,11.25Z" fill="url(#master_svg5_1836_042693)" fill-opacity="1"/></g><g><path d="M19.63360595703125,13.079039692878723L24.332975957031252,33.45173969287872L40.60000595703125,41.212839692878724L57.95160595703125,33.45173969287872L63.37390595703125,13.079039692878723L19.63360595703125,13.079039692878723Z" fill="url(#master_svg6_1836_077978)" fill-opacity="1"/></g></g><g><g clip-path="url(#master_svg7_1836_080378)"><g><path d="M50.488634375000004,8.673169999999999Q51.249834375,10.51088,51.249834375,12.5L41.249834375,12.5L41.249834375,2.500000596046C42.575934375,2.5,43.851534375,2.753735,45.076634375,3.261205C46.301834375,3.76867,47.383234375,4.49125,48.320934375,5.428929999999999Q49.727434375,6.83545,50.488634375000004,8.673169999999999ZM49.143234375,21.9446Q51.249834375,18.7918,51.249834375,15L38.749834375,15L38.749834375,2.50000119209Q34.957994375,2.5,31.805204375,4.60663Q28.652414375,6.71326,27.201339375,10.21646Q25.750268375,13.7197,26.490016375,17.4386Q27.229766375,21.1576,29.910994375,23.8388Q32.592234375000004,26.5201,36.311234375,27.2598C38.790534375,27.753,41.197934375,27.5159,43.533334374999995,26.5485C45.868834375,25.5811,47.738834374999996,24.0465,49.143234375,21.9446Z" fill-rule="evenodd" fill="#9CD1FC" fill-opacity="1"/></g></g><g clip-path="url(#master_svg8_1836_080377)"><g><path d="M51.738634375000004,9.923169999999999Q52.499834375,11.76088,52.499834375,13.75L42.499834375,13.75L42.499834375,3.750000596046C43.825934375,3.75,45.101534375,4.003735,46.326634375,4.511205C47.551834375,5.01867,48.633234375,5.74125,49.570934375,6.678929999999999Q50.977434375,8.08545,51.738634375000004,9.923169999999999ZM50.393234375,23.1946Q52.499834375,20.0418,52.499834375,16.25L39.999834375,16.25L39.999834375,3.75000119209Q36.207994375,3.75,33.055204375,5.85663Q29.902414375,7.96326,28.451339375,11.46646Q27.000268375,14.9697,27.740016375,18.6886Q28.479766375,22.4076,31.160994375,25.0888Q33.842234375000004,27.7701,37.561234375,28.5098C40.040534375,29.003,42.447934375,28.7659,44.783334374999995,27.7985C47.118834375,26.8311,48.988834374999996,25.2965,50.393234375,23.1946Z" fill-rule="evenodd" fill="url(#master_svg9_1836_078930)" fill-opacity="1"/></g></g></g></g></svg>