<svg xmlns="http://www.w3.org/2000/svg" xmlns:xlink="http://www.w3.org/1999/xlink" fill="none" version="1.1" width="97.56787109375" height="68.085205078125" viewBox="0 0 97.56787109375 68.085205078125"><defs><linearGradient x1="1" y1="0.06541160494089127" x2="0" y2="0.9252025485038757" id="master_svg0_542_029486"><stop offset="0%" stop-color="#00121D" stop-opacity="1"/><stop offset="100%" stop-color="#18799E" stop-opacity="1"/></linearGradient><linearGradient x1="1" y1="0.06541160494089127" x2="0" y2="0.9252025485038757" id="master_svg1_542_029469"><stop offset="0%" stop-color="#18799E" stop-opacity="1"/><stop offset="100%" stop-color="#00121D" stop-opacity="1"/></linearGradient><linearGradient x1="0.5" y1="-0.07887735217809677" x2="0.5" y2="1" id="master_svg2_542_029477"><stop offset="0%" stop-color="#000000" stop-opacity="1"/><stop offset="60.57034730911255%" stop-color="#001C3E" stop-opacity="1"/><stop offset="100%" stop-color="#01B1F7" stop-opacity="1"/></linearGradient><linearGradient x1="0.5" y1="0" x2="0.5" y2="1" id="master_svg3_542_029481"><stop offset="2.142857201397419%" stop-color="#000000" stop-opacity="1"/><stop offset="46.42857015132904%" stop-color="#002646" stop-opacity="1"/><stop offset="64.28571343421936%" stop-color="#0057B5" stop-opacity="1"/><stop offset="86.17864847183228%" stop-color="#09C0FD" stop-opacity="1"/><stop offset="100%" stop-color="#00F7FF" stop-opacity="1"/></linearGradient><linearGradient x1="0.5" y1="0" x2="0.5" y2="1" id="master_svg4_542_029483"><stop offset="0%" stop-color="#00AEFF" stop-opacity="0"/><stop offset="100%" stop-color="#01B1F7" stop-opacity="1"/></linearGradient><filter id="master_svg5_1010_020674" filterUnits="objectBoundingBox" color-interpolation-filters="sRGB" x="-20" y="-12.499999523162842" width="107.56784057617188" height="74.3351821899414"><feFlood flood-opacity="0" result="BackgroundImageFix"/><feColorMatrix in="SourceAlpha" type="matrix" values="0 0 0 0 0 0 0 0 0 0 0 0 0 0 0 0 0 0 127 0"/><feOffset dy="7.500000476837158" dx="0"/><feGaussianBlur stdDeviation="5"/><feColorMatrix type="matrix" values="0 0 0 0 0 0 0 0 0 0 0 0 0 0 0 0 0 0 0.30000001192092896 0"/><feBlend mode="normal" in2="BackgroundImageFix" result="effect1_dropShadow"/><feBlend mode="normal" in="SourceGraphic" in2="effect1_dropShadow" result="shape"/></filter><linearGradient x1="0.5" y1="0" x2="0.5" y2="1" id="master_svg6_542_029472"><stop offset="0%" stop-color="#155BFF" stop-opacity="0"/><stop offset="52.85714268684387%" stop-color="#155BFF" stop-opacity="0.4099999964237213"/><stop offset="83.57142806053162%" stop-color="#15CCFF" stop-opacity="0.8100000023841858"/><stop offset="100%" stop-color="#43FEFC" stop-opacity="1"/></linearGradient><filter id="master_svg7_1010_020680" filterUnits="objectBoundingBox" color-interpolation-filters="sRGB" x="-20" y="-12.499999523162842" width="83.74031066894531" height="68.13375663757324"><feFlood flood-opacity="0" result="BackgroundImageFix"/><feColorMatrix in="SourceAlpha" type="matrix" values="0 0 0 0 0 0 0 0 0 0 0 0 0 0 0 0 0 0 127 0"/><feOffset dy="7.500000476837158" dx="0"/><feGaussianBlur stdDeviation="5"/><feColorMatrix type="matrix" values="0 0 0 0 0 0 0 0 0 0 0 0 0 0 0 0 0 0 0.30000001192092896 0"/><feBlend mode="normal" in2="BackgroundImageFix" result="effect1_dropShadow"/><feBlend mode="normal" in="SourceGraphic" in2="effect1_dropShadow" result="shape"/></filter><linearGradient x1="0.5" y1="0" x2="0.5" y2="1" id="master_svg8_542_029472"><stop offset="0%" stop-color="#155BFF" stop-opacity="0"/><stop offset="52.85714268684387%" stop-color="#155BFF" stop-opacity="0.4099999964237213"/><stop offset="83.57142806053162%" stop-color="#15CCFF" stop-opacity="0.8100000023841858"/><stop offset="100%" stop-color="#43FEFC" stop-opacity="1"/></linearGradient><clipPath id="master_svg9_1010_022906"><rect x="31.0302734375" y="0" width="30" height="30" rx="0"/></clipPath><linearGradient x1="0.4513073265552521" y1="0.17547607421875" x2="-1.0265923738479614" y2="1.3411712646484375" id="master_svga_542_023732"><stop offset="0%" stop-color="#0144BF" stop-opacity="1"/><stop offset="100%" stop-color="#ACFFFE" stop-opacity="1"/></linearGradient><clipPath id="master_svgb_1010_022907"><rect x="32.2802734375" y="1.25" width="30" height="30" rx="0"/></clipPath><linearGradient x1="0.5" y1="0" x2="0.5" y2="1" id="master_svgc_542_023735"><stop offset="0%" stop-color="#D5FEFE" stop-opacity="1"/><stop offset="100%" stop-color="#A9F2FF" stop-opacity="1"/></linearGradient></defs><g><g><g><path d="M46.979522705078125,56.39436258239746L46.979522705078125,58.74996258239746L86.67872270507812,44.12575258239746L86.67872270507812,41.77016258239746L46.979522705078125,56.39436258239746Z" fill="url(#master_svg0_542_029486)" fill-opacity="1"/></g><g transform="matrix(1,0,0,-1,0,117.49984741210938)"><path d="M7.2802734375,73.37412370605469L7.2802734375,75.72972370605468L46.9794734375,61.10551370605469L46.9794734375,58.74992370605469L7.2802734375,73.37412370605469Z" fill="url(#master_svg1_542_029469)" fill-opacity="1"/></g><g><rect x="46.695804595947266" y="56.11700439453125" width="0.5844689607620239" height="2.543346881866455" rx="0" fill="#01CEF7" fill-opacity="1"/></g><g><path d="M47.2414734375,27.363624661376953Q46.9786734375,27.25578266137695,46.7162734375,27.365018661376954L8.0428024375,43.469621661376955Q7.6099844375,43.649821661376954,7.6197434375,44.11862166137695Q7.6295024375,44.587321661376954,8.0694484375,44.74942166137696L46.7428734375,58.995721661376955Q46.9786734375,59.082621661376955,47.2149734375,58.99692166137695L86.4744734375,44.75052166137695Q86.9175734375,44.589721661376956,86.9272734375,44.118421661376956Q86.9369734375,43.64712166137696,86.5008734375,43.46822166137695L47.2414734375,27.363624661376953ZM8.283063437500001,44.04662166137695L46.9565734375,27.941990661376952Q46.9803734375,27.932060661376955,47.0042734375,27.941864661376954L86.2636734375,44.046421661376954Q86.3033734375,44.062721661376955,86.3024734375,44.105521661376955Q86.3015734375,44.14842166137696,86.2612734375,44.16302166137695L47.0017734375,58.40942166137695Q46.9803734375,58.417221661376956,46.9588734375,58.40932166137695L8.2854934375,44.162921661376956Q8.2454954375,44.14822166137695,8.2446084375,44.10562166137696Q8.2437204375,44.06302166137695,8.283063437500001,44.04662166137695Z" fill-rule="evenodd" fill="url(#master_svg2_542_029477)" fill-opacity="1"/></g><g><path d="M8.1629354375,41.40260808868408C7.8481584375,41.53370808868408,7.8575094375,41.98280808868408,8.1774694375,42.10070808868409L46.8508734375,56.34700808868408C46.9339734375,56.377608088684084,47.0251734375,56.37780808868408,47.1083734375,56.34760808868408L86.3678734375,42.10120808868408C86.6901734375,41.98430808868408,86.6994734375,41.531908088684084,86.3822734375,41.40180808868408L47.1228734375,25.297230788684082C47.0310734375,25.259560988684083,46.9280734375,25.25983448868408,46.8364734375,25.297991188684083L8.1629354375,41.40260808868408Z" fill="url(#master_svg3_542_029481)" fill-opacity="1"/><path d="M47.2414734375,25.008111088684082Q46.9786734375,24.90026908868408,46.7162734375,25.009505088684083L8.0428024375,41.114108088684084Q7.6099844375,41.29430808868408,7.6197434375,41.76310808868408Q7.6295024375,42.23180808868408,8.0694484375,42.393908088684086L46.7428734375,56.64020808868408Q46.9786734375,56.72710808868408,47.2149734375,56.64140808868408L86.4744734375,42.39500808868408Q86.9175734375,42.234208088684085,86.9272734375,41.762908088684085Q86.9369734375,41.291608088684086,86.5008734375,41.11270808868408L47.2414734375,25.008111088684082ZM8.283063437500001,41.69110808868408L46.9565734375,25.58647708868408Q46.9803734375,25.576547088684084,47.0042734375,25.586351088684083L86.2636734375,41.69090808868408Q86.3033734375,41.707208088684084,86.3024734375,41.75000808868408Q86.3015734375,41.79290808868409,86.2612734375,41.80750808868408L47.0017734375,56.05390808868408Q46.9803734375,56.061708088684085,46.9588734375,56.05380808868408L8.2854934375,41.807408088684085Q8.2454954375,41.79270808868408,8.2446084375,41.75010808868409Q8.2437204375,41.70750808868408,8.283063437500001,41.69110808868408Z" fill-rule="evenodd" fill="url(#master_svg4_542_029483)" fill-opacity="1"/></g><g filter="url(#master_svg5_1010_020674)"><path d="M15.000110149383545,11.25L22.259470149383546,36.1134L47.38801014938355,45.5852L74.19181014938354,36.1134L82.56791014938355,11.25L15.000110149383545,11.25Z" fill="url(#master_svg6_542_029472)" fill-opacity="1"/></g><g filter="url(#master_svg7_1010_020680)"><path d="M26.91387939453125,13.079039573669434L31.613249394531252,33.45173957366943L47.88027939453125,41.212839573669434L65.23187939453125,33.45173957366943L70.65417939453124,13.079039573669434L26.91387939453125,13.079039573669434Z" fill="url(#master_svg8_542_029472)" fill-opacity="1"/></g></g><g><g clip-path="url(#master_svg9_1010_022906)"><g><path d="M57.768907812500004,8.673169999999999Q58.5301078125,10.51088,58.5301078125,12.5L48.5301078125,12.5L48.5301078125,2.500000596046C49.8562078125,2.5,51.1318078125,2.753735,52.3569078125,3.261205C53.5821078125,3.76867,54.6635078125,4.49125,55.6012078125,5.428929999999999Q57.0077078125,6.83545,57.768907812500004,8.673169999999999ZM56.4235078125,21.9446Q58.5301078125,18.7918,58.5301078125,15L46.0301078125,15L46.0301078125,2.50000119209Q42.2382678125,2.5,39.0854778125,4.60663Q35.9326878125,6.71326,34.4816128125,10.21646Q33.0305418125,13.7197,33.7702898125,17.4386Q34.5100398125,21.1576,37.1912678125,23.8388Q39.872507812500004,26.5201,43.5915078125,27.2598C46.0708078125,27.753,48.4782078125,27.5159,50.813607812499995,26.5485C53.1491078125,25.5811,55.019107812499996,24.0465,56.4235078125,21.9446Z" fill-rule="evenodd" fill="url(#master_svga_542_023732)" fill-opacity="1"/></g></g><g clip-path="url(#master_svgb_1010_022907)"><g><path d="M59.018907812500004,9.923169999999999Q59.7801078125,11.76088,59.7801078125,13.75L49.7801078125,13.75L49.7801078125,3.750000596046C51.1062078125,3.75,52.3818078125,4.003735,53.6069078125,4.511205C54.8321078125,5.01867,55.9135078125,5.74125,56.8512078125,6.678929999999999Q58.2577078125,8.08545,59.018907812500004,9.923169999999999ZM57.6735078125,23.1946Q59.7801078125,20.0418,59.7801078125,16.25L47.2801078125,16.25L47.2801078125,3.75000119209Q43.4882678125,3.75,40.3354778125,5.85663Q37.1826878125,7.96326,35.7316128125,11.46646Q34.2805418125,14.9697,35.0202898125,18.6886Q35.7600398125,22.4076,38.4412678125,25.0888Q41.122507812500004,27.7701,44.8415078125,28.5098C47.3208078125,29.003,49.7282078125,28.7659,52.063607812499995,27.7985C54.3991078125,26.8311,56.269107812499996,25.2965,57.6735078125,23.1946Z" fill-rule="evenodd" fill="url(#master_svgc_542_023735)" fill-opacity="1"/></g></g></g></g></svg>