<svg xmlns="http://www.w3.org/2000/svg" xmlns:xlink="http://www.w3.org/1999/xlink" fill="none" version="1.1" width="80" height="59.03955078125" viewBox="0 0 80 59.03955078125"><defs><linearGradient x1="0.032243162393569946" y1="0.9457089304924011" x2="1" y2="0.09897638857364655" id="master_svg0_1836_042146"><stop offset="0%" stop-color="#65D1FA" stop-opacity="1"/><stop offset="99.99998211860657%" stop-color="#1167FF" stop-opacity="1"/></linearGradient><linearGradient x1="1" y1="0.06541160494089127" x2="0" y2="0.9252025485038757" id="master_svg1_1836_041894"><stop offset="0%" stop-color="#65D1FA" stop-opacity="1"/><stop offset="100%" stop-color="#1167FF" stop-opacity="1"/></linearGradient><linearGradient x1="0.5" y1="-0.07887735217809677" x2="0.5" y2="1" id="master_svg2_1836_040840"><stop offset="0%" stop-color="#DEDEDE" stop-opacity="1"/><stop offset="61.42857074737549%" stop-color="#0062D9" stop-opacity="1"/><stop offset="97.85714149475098%" stop-color="#34B8ED" stop-opacity="1"/></linearGradient><linearGradient x1="0.5" y1="0" x2="0.5" y2="1" id="master_svg3_1836_078508"><stop offset="2.142857201397419%" stop-color="#FFFFFF" stop-opacity="1"/><stop offset="46.42857015132904%" stop-color="#63B8FF" stop-opacity="1"/><stop offset="64.28571343421936%" stop-color="#68B0FF" stop-opacity="1"/><stop offset="82.85714387893677%" stop-color="#7ACEFC" stop-opacity="1"/><stop offset="99.28571581840515%" stop-color="#8DD0FF" stop-opacity="1"/></linearGradient><linearGradient x1="0.5" y1="0" x2="0.5" y2="1" id="master_svg4_542_029483"><stop offset="0%" stop-color="#00AEFF" stop-opacity="0"/><stop offset="100%" stop-color="#01B1F7" stop-opacity="1"/></linearGradient><linearGradient x1="0.5" y1="-3.0616171314629196e-17" x2="0.5" y2="1" id="master_svg5_1836_042693"><stop offset="0%" stop-color="#6FD6FF" stop-opacity="0"/><stop offset="100%" stop-color="#0095FF" stop-opacity="0.4745098054409027"/></linearGradient><linearGradient x1="0.5" y1="-3.0616171314629196e-17" x2="0.5" y2="1" id="master_svg6_1836_077978"><stop offset="0%" stop-color="#6FD6FF" stop-opacity="0"/><stop offset="100%" stop-color="#288EE2" stop-opacity="0.4745098054409027"/></linearGradient><clipPath id="master_svg7_1836_080376"><rect x="23.75" y="0" width="30" height="30" rx="0"/></clipPath><clipPath id="master_svg8_1836_080375"><rect x="25" y="1.25" width="30" height="30" rx="0"/></clipPath><linearGradient x1="0.5" y1="0" x2="0.5" y2="1" id="master_svg9_1836_078930"><stop offset="4.285714402794838%" stop-color="#71C0FD" stop-opacity="1"/><stop offset="100%" stop-color="#1A73FE" stop-opacity="1"/></linearGradient></defs><g><g><g><path d="M39.699249267578125,56.394364489746096L39.699249267578125,58.74996448974609L79.39844926757812,44.12575448974609L79.39844926757812,41.770164489746094L39.699249267578125,56.394364489746096Z" fill="url(#master_svg0_1836_042146)" fill-opacity="1"/></g><g transform="matrix(1,0,0,-1,0,117.4998550415039)"><path d="M0,73.37412752075195L0,75.72972752075195L39.6992,61.10551752075195L39.6992,58.74992752075195L0,73.37412752075195Z" fill="url(#master_svg1_1836_041894)" fill-opacity="1"/></g><g><rect x="39.415531158447266" y="56.117008209228516" width="0.5844690203666687" height="2.543347120285034" rx="0" fill="#01CEF7" fill-opacity="1"/></g><g><path d="M39.9612,27.363626568725586Q39.6984,27.255784568725584,39.436,27.365020568725587L0.762529,43.46962356872559Q0.329711,43.64982356872559,0.33947,44.11862356872558Q0.349229,44.58732356872559,0.789175,44.74942356872559L39.4626,58.99572356872559Q39.6984,59.08262356872559,39.9347,58.996923568725585L79.1942,44.75052356872558Q79.6373,44.58972356872559,79.647,44.11842356872559Q79.6567,43.64712356872559,79.2206,43.468223568725584L39.9612,27.363626568725586ZM1.00279,44.046623568725586L39.6763,27.941992568725585Q39.7001,27.932062568725588,39.724,27.941866568725587L78.9834,44.04642356872559Q79.0231,44.06272356872559,79.0222,44.10552356872559Q79.0213,44.14842356872559,78.981,44.163023568725585L39.7215,58.409423568725586Q39.7001,58.41722356872559,39.6786,58.40932356872558L1.00522,44.16292356872559Q0.965222,44.148223568725584,0.964335,44.10562356872559Q0.963447,44.06302356872558,1.00279,44.046623568725586Z" fill-rule="evenodd" fill="url(#master_svg2_1836_040840)" fill-opacity="1"/></g><g><path d="M0.882662,41.4026090423584C0.567885,41.533709042358396,0.577236,41.9828090423584,0.897196,42.1007090423584L39.5706,56.347009042358394C39.6537,56.3776090423584,39.7449,56.37780904235839,39.8281,56.3476090423584L79.0876,42.1012090423584C79.4099,41.9843090423584,79.4192,41.5319090423584,79.102,41.401809042358394L39.8426,25.2972317423584C39.7508,25.2595619423584,39.6478,25.259835442358398,39.5562,25.2979921423584L0.882662,41.4026090423584Z" fill="url(#master_svg3_1836_078508)" fill-opacity="1"/><path d="M39.9612,25.0081120423584Q39.6984,24.900270042358397,39.436,25.0095060423584L0.762529,41.1141090423584Q0.329711,41.2943090423584,0.33947,41.763109042358394Q0.349229,42.2318090423584,0.789175,42.3939090423584L39.4626,56.6402090423584Q39.6984,56.7271090423584,39.9347,56.6414090423584L79.1942,42.395009042358396Q79.6373,42.2342090423584,79.647,41.7629090423584Q79.6567,41.2916090423584,79.2206,41.1127090423584L39.9612,25.0081120423584ZM1.00279,41.6911090423584L39.6763,25.586478042358397Q39.7001,25.5765480423584,39.724,25.5863520423584L78.9834,41.6909090423584Q79.0231,41.7072090423584,79.0222,41.7500090423584Q79.0213,41.7929090423584,78.981,41.8075090423584L39.7215,56.0539090423584Q39.7001,56.0617090423584,39.6786,56.053809042358395L1.00522,41.8074090423584Q0.965222,41.792709042358396,0.964335,41.7501090423584Q0.963447,41.707509042358396,1.00279,41.6911090423584Z" fill-rule="evenodd" fill="url(#master_svg4_542_029483)" fill-opacity="1"/></g><g><path d="M7.719837188720703,11.25L14.979197188720704,36.1134L40.107737188720705,45.5852L66.9115371887207,36.1134L75.28763718872071,11.25L7.719837188720703,11.25Z" fill="url(#master_svg5_1836_042693)" fill-opacity="1"/></g><g><path d="M19.63360595703125,13.079039692878723L24.332975957031252,33.45173969287872L40.60000595703125,41.212839692878724L57.95160595703125,33.45173969287872L63.37390595703125,13.079039692878723L19.63360595703125,13.079039692878723Z" fill="url(#master_svg6_1836_077978)" fill-opacity="1"/></g></g><g><g clip-path="url(#master_svg7_1836_080376)"><g><path d="M36.230779999999996,27.24601171875C35.42657,27.08111171875,34.64066,26.83711171875,33.88453,26.51731171875C33.141040000000004,26.20271171875,32.42985,25.81681171875,31.760939999999998,25.36481171875C31.09695,24.91631171875,30.4775,24.40521171875,29.9111,23.83851171875C29.34463,23.27171171875,28.83356,22.65241171875,28.38485,21.98861171875C27.93284,21.31971171875,27.54683,20.60851171875,27.232188999999998,19.86511171875C26.912508,19.10901171875,26.668558,18.32301171875,26.503906,17.518911718749997C26.3348293,16.68991171875,26.249761581,15.84581171875,26.25,14.99951171875C26.249876022,14.15341171875,26.3350487,13.30941171875,26.504221,12.48044171875C26.66894,11.67599171875,26.912889,10.89001171875,27.232504,10.13379171875C27.54724,9.390531718750001,27.93327,8.679471718750001,28.38516,8.01068171875C28.83386,7.34677171875,29.34493,6.72711171875,29.91141,6.16040171875C30.47806,5.59399171875,31.09748,5.08282171875,31.76126,4.63406171875C32.43029,4.18240171875,33.14146,3.79635171875,33.88485,3.48156771875C34.641059999999996,3.16220071875,35.42694,2.91821271875,36.2311,2.75326571875C37.0601,2.58419801875,37.903999999999996,2.49920654275,38.75,2.49951171875C39.596199999999996,2.49920654275,40.4404,2.58419801875,41.2695,2.75326571875C42.0737,2.91821271875,42.8596,3.16204871875,43.6158,3.48156771875C44.359,3.7965117187499997,45.07,4.18240171875,45.7389,4.63406171875C46.402699999999996,5.08282171875,47.0222,5.59399171875,47.5891,6.16040171875C48.1555,6.72711171875,48.6666,7.34677171875,49.115300000000005,8.01068171875C49.567099999999996,8.679621718749999,49.9531,9.390531718750001,50.268,10.13379171875C50.587599999999995,10.89001171875,50.8315,11.67615171875,50.996300000000005,12.48044171875C51.1653,13.30941171875,51.250299999999996,14.15341171875,51.25,14.99951171875C51.250299999999996,15.84561171875,51.1653,16.68971171875,50.9962,17.518711718749998C50.8316,18.32291171875,50.587599999999995,19.10881171875,50.268,19.86491171875C49.953199999999995,20.60831171875,49.5672,21.31951171875,49.115300000000005,21.98851171875C48.6666,22.65221171875,48.1555,23.27161171875,47.5891,23.83831171875C47.022400000000005,24.40491171875,46.4029,24.91601171875,45.7389,25.36461171875C45.0701,25.81661171875,44.3591,26.20251171875,43.6158,26.51711171875C42.8596,26.83681171875,42.0737,27.08091171875,41.2695,27.24591171875C40.4414,27.41451171875,39.5974,27.49951171875,38.75,27.49951171875C37.9039,27.49971171875,37.0599,27.41481171875,36.230779999999996,27.24601171875ZM34.8575,5.78534171875C34.26284,6.03696171875,33.69403,6.34579171875,33.15907,6.70727171875C32.6278,7.06616171875,32.13216,7.47510171875,31.678910000000002,7.92843171875C31.22568,8.38193171875,30.8168,8.87753171875,30.457810000000002,9.40854171875C30.09635,9.943511718749999,29.78762,10.51236171875,29.53593,11.10699171875C29.0147,12.33838171875,28.74738,13.66241171875,28.75,14.99951171875C28.74745,16.33661171875,29.01482,17.660611718749998,29.53609,18.89201171875C29.78783,19.48671171875,30.09656,20.05551171875,30.45797,20.59051171875C30.81707,21.12151171875,31.22595,21.61711171875,31.67907,22.07061171875C32.132509999999996,22.52391171875,32.62815,22.93271171875,33.15923,23.29171171875C33.69431,23.65311171875,34.26311,23.96191171875,34.857659999999996,24.21371171875C36.08902,24.73491171875,37.4129,25.00211171875,38.75,24.99951171875C40.087199999999996,25.00191171875,41.4111,24.73461171875,42.6425,24.21341171875C43.2372,23.96161171875,43.8061,23.65281171875,44.3412,23.29141171875C44.8722,22.93211171875,45.3678,22.52331171875,45.8214,22.07031171875C46.2745,21.61691171875,46.6834,21.12131171875,47.042500000000004,20.59021171875C47.403800000000004,20.05501171875,47.7125,19.48621171875,47.9644,18.89171171875C48.4854,17.660311718750002,48.7526,16.33661171875,48.75,14.99951171875C48.752700000000004,13.66241171875,48.4855,12.33853171875,47.9644,11.10715171875C47.712599999999995,10.51266171875,47.4039,9.94382171875,47.042500000000004,9.40869171875C46.683499999999995,8.87768171875,46.2746,8.382081718750001,45.8214,7.92859171875C45.367999999999995,7.47525171875,44.8724,7.06647171875,44.3412,6.70743171875C43.8061,6.34610171875,43.2372,6.03726171875,42.6425,5.78549171875C41.4111,5.26425171875,40.087199999999996,4.99692171875,38.75,4.99951171875C37.412800000000004,4.99692171875,36.08891,5.26410171875,34.8575,5.78534171875ZM30.07812,14.99951171875C30.0777,14.40041171875,30.13912,13.80311171875,30.261400000000002,13.21671171875C32.96905,13.18101171875,33.82484,13.61871171875,35.56828,14.66981171875C37.4277,15.78961171875,38.086600000000004,16.732311718749997,40.807,16.54661171875C43.4417,16.367311718750003,44.390299999999996,14.12271171875,47.3602,13.96221171875C47.4012,14.30661171875,47.4217,14.65311171875,47.4216,15.00001171875C47.4216,19.78921171875,43.539,23.67181171875,38.749700000000004,23.67181171875C33.96053,23.67201171875,30.07812,19.78911171875,30.07812,14.99951171875Z" fill="#9CD1FC" fill-opacity="1"/></g></g><g clip-path="url(#master_svg8_1836_080375)"><g><path d="M37.480779999999996,28.49601171875C36.67657,28.33111171875,35.89066,28.08711171875,35.13453,27.76731171875C34.391040000000004,27.45271171875,33.67985,27.06681171875,33.01094,26.61481171875C32.34695,26.16631171875,31.7275,25.65521171875,31.1611,25.08851171875C30.59463,24.52171171875,30.08356,23.90241171875,29.63485,23.23861171875C29.18284,22.56971171875,28.79683,21.85851171875,28.482188999999998,21.11511171875C28.162508,20.35901171875,27.918558,19.57301171875,27.753906,18.768911718749997C27.5848293,17.93991171875,27.499761581,17.09581171875,27.5,16.24951171875C27.499876022,15.40341171875,27.5850487,14.55941171875,27.754221,13.73044171875C27.91894,12.92599171875,28.162889,12.14001171875,28.482504,11.38379171875C28.79724,10.640531718750001,29.18327,9.929471718750001,29.63516,9.26068171875C30.08386,8.59677171875,30.59493,7.97711171875,31.16141,7.41040171875C31.72806,6.84399171875,32.34748,6.33282171875,33.01126,5.88406171875C33.68029,5.43240171875,34.39146,5.0463517187499995,35.13485,4.73156771875C35.891059999999996,4.41220071875,36.67694,4.16821271875,37.4811,4.00326571875C38.3101,3.83419801875,39.153999999999996,3.74920654275,40,3.74951171875C40.846199999999996,3.74920654275,41.6904,3.83419801875,42.5195,4.00326571875C43.3237,4.16821271875,44.1096,4.41204871875,44.8658,4.73156771875C45.609,5.04651171875,46.32,5.43240171875,46.9889,5.88406171875C47.652699999999996,6.33282171875,48.2722,6.84399171875,48.8391,7.41040171875C49.4055,7.97711171875,49.9166,8.59677171875,50.365300000000005,9.26068171875C50.817099999999996,9.929621718749999,51.2031,10.640531718750001,51.518,11.38379171875C51.837599999999995,12.14001171875,52.0815,12.92615171875,52.246300000000005,13.73044171875C52.4153,14.55941171875,52.500299999999996,15.40341171875,52.5,16.24951171875C52.500299999999996,17.09561171875,52.4153,17.93971171875,52.2462,18.768711718749998C52.0816,19.57291171875,51.837599999999995,20.35881171875,51.518,21.11491171875C51.203199999999995,21.85831171875,50.8172,22.56951171875,50.365300000000005,23.23851171875C49.9166,23.90221171875,49.4055,24.52161171875,48.8391,25.08831171875C48.272400000000005,25.65491171875,47.6529,26.16601171875,46.9889,26.61461171875C46.3201,27.06661171875,45.6091,27.45251171875,44.8658,27.76711171875C44.1096,28.08681171875,43.3237,28.33091171875,42.5195,28.49591171875C41.6914,28.66451171875,40.8474,28.74951171875,40,28.74951171875C39.1539,28.74971171875,38.3099,28.66481171875,37.480779999999996,28.49601171875ZM36.1075,7.03534171875C35.51284,7.28696171875,34.94403,7.59579171875,34.40907,7.95727171875C33.8778,8.31616171875,33.38216,8.72510171875,32.92891,9.17843171875C32.47568,9.63193171875,32.0668,10.12753171875,31.707810000000002,10.65854171875C31.34635,11.193511718749999,31.03762,11.76236171875,30.78593,12.35699171875C30.2647,13.58838171875,29.99738,14.91241171875,30,16.24951171875C29.99745,17.58661171875,30.26482,18.910611718749998,30.78609,20.14201171875C31.03783,20.73671171875,31.34656,21.30551171875,31.70797,21.84051171875C32.06707,22.37151171875,32.47595,22.86711171875,32.92907,23.32061171875C33.382509999999996,23.77391171875,33.87815,24.18271171875,34.40923,24.54171171875C34.94431,24.90311171875,35.51311,25.21191171875,36.107659999999996,25.46371171875C37.33902,25.98491171875,38.6629,26.25211171875,40,26.24951171875C41.337199999999996,26.25191171875,42.6611,25.98461171875,43.8925,25.46341171875C44.4872,25.21161171875,45.0561,24.90281171875,45.5912,24.54141171875C46.1222,24.18211171875,46.6178,23.77331171875,47.0714,23.32031171875C47.5245,22.86691171875,47.9334,22.37131171875,48.292500000000004,21.84021171875C48.653800000000004,21.30501171875,48.9625,20.73621171875,49.2144,20.14171171875C49.7354,18.910311718750002,50.0026,17.58661171875,50,16.24951171875C50.002700000000004,14.91241171875,49.7355,13.58853171875,49.2144,12.35715171875C48.962599999999995,11.76266171875,48.6539,11.19382171875,48.292500000000004,10.65869171875C47.933499999999995,10.12768171875,47.5246,9.632081718750001,47.0714,9.178591718749999C46.617999999999995,8.72525171875,46.1224,8.31647171875,45.5912,7.95743171875C45.0561,7.59610171875,44.4872,7.28726171875,43.8925,7.03549171875C42.6611,6.51425171875,41.337199999999996,6.24692171875,40,6.24951171875C38.662800000000004,6.24692171875,37.33891,6.51410171875,36.1075,7.03534171875ZM31.32812,16.24951171875C31.3277,15.65041171875,31.38912,15.05311171875,31.511400000000002,14.46671171875C34.21905,14.43101171875,35.07484,14.86871171875,36.81828,15.91981171875C38.6777,17.039611718750002,39.336600000000004,17.982311718749997,42.057,17.79661171875C44.6917,17.617311718750003,45.640299999999996,15.37271171875,48.6102,15.21221171875C48.6512,15.55661171875,48.6717,15.90311171875,48.6716,16.250011718750002C48.6716,21.03921171875,44.789,24.92181171875,39.999700000000004,24.92181171875C35.21053,24.92201171875,31.32812,21.03911171875,31.32812,16.24951171875Z" fill="url(#master_svg9_1836_078930)" fill-opacity="1"/></g></g></g></g></svg>