<svg xmlns="http://www.w3.org/2000/svg" xmlns:xlink="http://www.w3.org/1999/xlink" fill="none" version="1.1" width="40" height="40" viewBox="0 0 40 40"><defs><clipPath id="master_svg0_1010_027504"><rect x="0" y="0" width="40" height="40" rx="0"/></clipPath></defs><g clip-path="url(#master_svg0_1010_027504)"><g style="opacity:0.5;"><path d="M15.4582478125,35.68323505859375Q14.0966578125,34.978235058593754,13.4767978125,34.52743505859375C12.8528478125,34.07513505859375,12.2744978125,33.56313505859375,11.7499178125,32.99863505859375C11.2180978125,32.42653505859375,10.7412178125,31.80573505859375,10.3255478125,31.14443505859375C9.9017678125,30.47023505859375,9.541597812500001,29.75813505859375,9.2497178125,29.01713505859375C8.6398998125,27.46503505859375,8.3288879425,25.81153505859375,8.3330523173,24.14383505859375C8.3330523173,22.03693505859375,9.2913868125,19.29153505859375,11.2611778125,15.75013505859375C11.9903478125,14.44013505859375,12.858687812500001,13.02759505859375,13.841387812499999,11.55239505859375C15.0161778125,9.79551505859375,16.2613978125,8.05926505859375,17.5422178125,6.3928050585937495C18.0761778125,5.69510505859375,18.6014078125,5.02947505859375,19.103707812499998,4.41364505859375L19.228707812499998,4.25947805859375L19.9995078125,3.33343505859375L20.768307812499998,4.25947805859375L20.8949078125,4.41364505859375L20.963007812500003,4.49697505859375C21.0278078125,4.57551505859375,21.126807812499997,4.69593505859375,21.238907812500003,4.83551505859375C21.6643078125,5.36968505859375,22.0639078125,5.87843505859375,22.4601078125,6.39176505859375C23.7537078125,8.07926505859375,24.9982078125,9.81447505859375,26.1589078125,11.55239505859375C27.1380078125,13.02364505859375,28.0053078125,14.43593505859375,28.7383078125,15.75033505859375C30.7080078125,19.29193505859375,31.6647078125,22.03743505859375,31.6647078125,24.14613505859375C31.6690078125,25.81383505859375,31.3580078125,27.46733505859375,30.7480078125,29.01943505859375C30.4564078125,29.76053505859375,30.0962078125,30.47273505859375,29.6722078125,31.14673505859375C29.2565078125,31.80803505859375,28.7797078125,32.42883505859375,28.2478078125,33.000935058593754C27.7231078125,33.56523505859375,27.1447078125,34.07723505859375,26.5210078125,34.529635058593755C25.9012078125,34.98073505859375,25.2372078125,35.36763505859375,24.5393078125,35.68443505859375C21.6541078125,36.99543505859375,18.343007812499998,36.99503505859375,15.4582478125,35.68323505859375L15.4582478125,35.68323505859375ZM19.4503078125,9.026975058593749L19.359907812499998,9.14238505859375C18.9947078125,9.61363505859375,18.6193078125,10.11384505859375,18.2438878125,10.62801505859375C17.3272078125,11.87946505859375,16.4386778125,13.18155505859375,15.6007578125,14.49763505859375C14.8997178125,15.60173505859375,14.2797178125,16.66193505859375,13.7576378125,17.64613505859375C12.3515878125,20.30133505859375,11.6667978125,22.36053505859375,11.6667978125,23.94113505859375C11.6632878125,25.18933505859375,11.8853178125,26.42793505859375,12.3222178125,27.59723505859375C12.7288378125,28.69363505859375,13.3343978125,29.70563505859375,14.1084578125,30.58223505859375C14.8471078125,31.42403505859375,15.7478178125,32.108535058593745,16.7567878125,32.59473505859375C18.807607812500002,33.577735058593746,21.193507812500002,33.577735058593746,23.2443078125,32.59473505859375C24.253307812499997,32.108535058593745,25.1539078125,31.42403505859375,25.8926078125,30.58223505859375C26.6666078125,29.70553505859375,27.2722078125,28.69363505859375,27.6789078125,27.59723505859375C28.1155078125,26.42783505859375,28.3372078125,25.18933505859375,28.3335078125,23.94113505859375C28.3335078125,22.36153505859375,27.6505078125,20.30263505859375,26.2441078125,17.64633505859375C25.7233078125,16.663835058593747,25.1022078125,15.60473505859375,24.4001078125,14.49783505859375C23.5732078125,13.19634505859375,22.6837078125,11.89364505859375,21.757807812499998,10.62739505859375C21.4693078125,10.23363505859375,21.184307812500002,9.85218505859375,20.885507812500002,9.459685058593749C20.832207812500002,9.389055058593751,20.7814078125,9.32343505859375,20.7339078125,9.26218505859375L20.6960078125,9.21322505859375L20.6899078125,9.20551505859375L20.6399078125,9.14302505859375L20.5495078125,9.02760505859375L20.000307812499997,8.33323505859375L19.4503078125,9.026975058593749ZM13.3334678125,24.07693505859375C13.3334678125,19.88613505859375,16.7990978125,22.00743505859375,20.000107812499998,24.07693505859375C21.4255078125,24.99923505859375,22.900707812500002,24.27783505859375,24.0978078125,23.55613505859375C24.3733078125,23.37463505859375,26.6660078125,21.74653505859375,26.6660078125,24.07693505859375C26.6660078125,28.27033505859375,23.6818078125,31.66633505859375,19.9993078125,31.66633505859375C16.3167978125,31.66633505859375,13.3334678125,28.27033505859375,13.3334678125,24.07693505859375Z" fill="#002C33" fill-opacity="1"/></g></g></svg>