<svg xmlns="http://www.w3.org/2000/svg" xmlns:xlink="http://www.w3.org/1999/xlink" fill="none" version="1.1" width="40" height="40" viewBox="0 0 40 40"><defs><clipPath id="master_svg0_1010_027505"><rect x="0" y="0" width="40" height="40" rx="0"/></clipPath></defs><g clip-path="url(#master_svg0_1010_027505)"><g style="opacity:0.5;"><path d="M18.333984375,34.9998298828125L18.333984375,30.2081298828125C18.333984375,29.2876298828125,19.080184375,28.5414298828125,20.000684375,28.5414298828125C20.921084375,28.5414298828125,21.667284375,29.2876298828125,21.667284375,30.2081298828125L21.667284375,34.9998298828125C21.667284375,35.9203298828125,20.921084375,36.6664298828125,20.000684375,36.6664298828125C19.080184375,36.6664298828125,18.333984375,35.9203298828125,18.333984375,34.9998298828125ZM26.667284375,33.5414298828125L26.667284375,30.2081298828125C26.667284375,29.2876298828125,27.413484375,28.5414298828125,28.333984375,28.5414298828125C29.254484375,28.5414298828125,30.000684375,29.2876298828125,30.000684375,30.2081298828125L30.000684375,33.5414298828125C30.000684375,34.4619298828125,29.254484375,35.2081298828125,28.333984375,35.2081298828125C27.413484375,35.2081298828125,26.667284375,34.4619298828125,26.667284375,33.5414298828125ZM10.000654375,33.5414298828125L10.000654375,30.2081298828125C10.000654375,29.2876298828125,10.746844375,28.5414298828125,11.667314375,28.5414298828125C12.587794375,28.5414298828125,13.333984375,29.2876298828125,13.333984375,30.2081298828125L13.333984375,33.5414298828125C13.333984375,34.4619298828125,12.587794375,35.2081298828125,11.667314375,35.2081298828125C10.746844375,35.2081298828125,10.000654375,34.4619298828125,10.000654375,33.5414298828125ZM11.667314375,26.6664298828125C7.070234375,26.6664298828125,3.333984375,22.7435298828125,3.333984375,17.9164298828125C3.333984375,13.4102298828125,6.583984375,9.6916698828125,10.763984375,9.224799882812501C12.500654375,5.7249998828125,15.986084375,3.3331298828125,20.000684375,3.3331298828125C25.056284375,3.3331298828125,29.264384375,7.1106198828125,30.208984375,12.1416698828125C33.820184375,12.4041698828125,36.667284375,15.5250298828125,36.667284375,19.3752298828125C36.667284375,23.4002298828125,33.556084375,26.6668298828125,29.722784375,26.6668298828125L11.667314375,26.6664298828125Z" fill="#002C33" fill-opacity="1"/></g></g></svg>