<svg xmlns="http://www.w3.org/2000/svg" xmlns:xlink="http://www.w3.org/1999/xlink" fill="none" version="1.1" width="40" height="40" viewBox="0 0 40 40"><defs><clipPath id="master_svg0_1010_027508"><rect x="0" y="0" width="40" height="40" rx="0"/></clipPath></defs><g clip-path="url(#master_svg0_1010_027508)"><g style="opacity:0.5;"><path d="M24.999615625,21.66673505859375L24.999615625,8.33343505859375C24.999615625,5.57201505859375,22.761015625,3.33343505859375,19.999635625,3.33343505859375C17.238215625,3.33343505859375,14.999635625,5.57201505859375,14.999635625,8.33343505859375L14.999635625,21.66673505859375C11.068970625,24.61473505859375,10.528965625,30.30613505859375,13.835065625,33.94083505859375C17.141165625,37.57543505859375,22.858115625,37.57543505859375,26.164215625,33.94083505859375C29.470315625,30.30613505859375,28.930315625,24.61473505859375,24.999615625,21.66673505859375ZM18.332975625,20.00013505859375L18.332975625,8.33343505859375C18.332975625,7.41296505859375,19.079165625,6.66676505859375,19.999635625,6.66676505859375C20.920115625,6.66676505859375,21.666315625,7.41296505859375,21.666315625,8.33343505859375L21.666315625,10.00010505859375L19.999635625,10.00010505859375L19.999635625,11.66676505859375L21.666315625,11.66676505859375L21.666315625,15.00013505859375L19.999635625,15.00013505859375L19.999635625,16.66673505859375L21.666315625,16.66673505859375L21.666315625,20.00013505859375L18.332975625,20.00013505859375Z" fill="#002C33" fill-opacity="1"/></g></g></svg>