<svg xmlns="http://www.w3.org/2000/svg" xmlns:xlink="http://www.w3.org/1999/xlink" fill="none" version="1.1" width="33.333335876464844" height="28.333335876464844" viewBox="0 0 33.333335876464844 28.333335876464844"><g><path d="M20.8333,23.3333C20.8333,26.0948,18.5948,28.3333,15.8333,28.3333C13.0719,28.3333,10.8333,26.0948,10.8333,23.3333L14.1667,23.3333C14.1667,24.2538,14.9129,25,15.8333,25C16.7538,25,17.5,24.2538,17.5,23.3333C17.5,22.4129,16.7538,21.6667,15.8333,21.6667L0,21.6667L0,18.3333L15.8333,18.3333C18.5914,18.3415,20.8252,20.5753,20.8333,23.3333ZM28.3333,5.83333C28.3333,2.61167,25.7217,0,22.5,0C19.2783,0,16.6667,2.61167,16.6667,5.83333L20,5.83333C20,4.45262,21.1193,3.33333,22.5,3.33333C23.8807,3.33333,25,4.45262,25,5.83333C25,7.21405,23.8807,8.33333,22.5,8.33333L0,8.33333L0,11.6667L22.5,11.6667C25.7202,11.6631,28.3298,9.05352,28.3333,5.83333ZM27.5,13.3333L0,13.3333L0,16.6667L27.5,16.6667C28.8807,16.6667,30,17.786,30,19.1667C30,20.5474,28.8807,21.6667,27.5,21.6667L27.5,25C30.7217,25,33.3333,22.3883,33.3333,19.1667C33.3333,15.945,30.7217,13.3333,27.5,13.3333Z" fill="#D0E4FF" fill-opacity="1"/></g></svg>