<svg xmlns="http://www.w3.org/2000/svg" xmlns:xlink="http://www.w3.org/1999/xlink" fill="none" version="1.1" width="33.333335876464844" height="33.333335876464844" viewBox="0 0 33.333335876464844 33.333335876464844"><g><path d="M15,31.6667L15,26.875C15,25.9545,15.7462,25.2083,16.6667,25.2083C17.5871,25.2083,18.3333,25.9545,18.3333,26.875L18.3333,31.6667C18.3333,32.5872,17.5871,33.3333,16.6667,33.3333C15.7462,33.3333,15,32.5872,15,31.6667ZM23.3333,30.2083L23.3333,26.875C23.3333,25.9545,24.0795,25.2083,25,25.2083C25.9205,25.2083,26.6667,25.9545,26.6667,26.875L26.6667,30.2083C26.6667,31.1288,25.9205,31.875,25,31.875C24.0795,31.875,23.3333,31.1288,23.3333,30.2083ZM6.66667,30.2083L6.66667,26.875C6.66667,25.9545,7.41286,25.2083,8.33333,25.2083C9.25381,25.2083,10,25.9545,10,26.875L10,30.2083C10,31.1288,9.25381,31.875,8.33333,31.875C7.41286,31.875,6.66667,31.1288,6.66667,30.2083ZM8.33333,23.3333C3.73625,23.3333,0,19.4104,0,14.5833C0,10.0771,3.25,6.35854,7.43,5.89167C9.16667,2.39187,12.6521,0,16.6667,0C21.7223,0,25.9304,3.77749,26.875,8.80854C30.4862,9.07104,33.3333,12.1919,33.3333,16.0421C33.3333,20.0671,30.2221,23.3337,26.3888,23.3337L8.33333,23.3333Z" fill="#D0E4FF" fill-opacity="1"/></g></svg>