<svg xmlns="http://www.w3.org/2000/svg" xmlns:xlink="http://www.w3.org/1999/xlink" fill="none" version="1.1" width="16.667245864868164" height="33.333335876464844" viewBox="0 0 16.667245864868164 33.333335876464844"><g><path d="M13.3336,18.3333L13.3336,5C13.3336,2.23858,11.095,0,8.33362,0C5.5722,0,3.33362,2.23858,3.33362,5L3.33362,18.3333C-0.597045,21.2813,-1.13705,26.9727,2.16905,30.6074C5.47515,34.242,11.1921,34.242,14.4982,30.6074C17.8043,26.9727,17.2643,21.2813,13.3336,18.3333ZM6.66696,16.6667L6.66696,5C6.66696,4.07953,7.41315,3.33333,8.33362,3.33333C9.2541,3.33333,10.0003,4.07953,10.0003,5L10.0003,6.66667L8.33362,6.66667L8.33362,8.33333L10.0003,8.33333L10.0003,11.6667L8.33362,11.6667L8.33362,13.3333L10.0003,13.3333L10.0003,16.6667L6.66696,16.6667Z" fill="#D0E4FF" fill-opacity="1"/></g></svg>