<svg xmlns="http://www.w3.org/2000/svg" xmlns:xlink="http://www.w3.org/1999/xlink" fill="none" version="1.1" width="23.331745147705078" height="33.333946228027344" viewBox="0 0 23.331745147705078 33.333946228027344"><g><path d="M7.12524,32.3498Q5.76365,31.6448,5.14379,31.194C4.51984,30.7417,3.94149,30.2297,3.41691,29.6652C2.88509,29.0931,2.40821,28.4723,1.99254,27.811C1.56876,27.1368,1.20859,26.4247,0.91671,25.6837C0.306892,24.1316,-0.00411987,22.4781,0.0000445048,20.8104C0.0000445048,18.7035,0.958379,15.9581,2.92817,12.4167C3.65734,11.1067,4.52568,9.69416,5.50838,8.21896C6.68317,6.46208,7.92839,4.72583,9.20921,3.05937C9.74317,2.36167,10.2684,1.69604,10.7707,1.08021L10.8957,0.926043L11.6665,0L12.4353,0.926043L12.5619,1.08021L12.63,1.16354C12.6948,1.24208,12.7938,1.3625,12.9059,1.50208C13.3313,2.03625,13.7309,2.545,14.1271,3.05833C15.4207,4.74583,16.6652,6.48104,17.8259,8.21896C18.805,9.69021,19.6723,11.1025,20.4053,12.4169C22.375,15.9585,23.3317,18.704,23.3317,20.8127C23.336,22.4804,23.025,24.1339,22.415,25.686C22.1234,26.4271,21.7632,27.1393,21.3392,27.8133C20.9235,28.4746,20.4467,29.0954,19.9148,29.6675C19.3901,30.2318,18.8117,30.7438,18.188,31.1962C17.5682,31.6473,16.9042,32.0342,16.2063,32.351C13.3211,33.662,10.01,33.6616,7.12524,32.3498L7.12524,32.3498ZM11.1173,5.69354L11.0269,5.80895C10.6617,6.2802,10.2863,6.78041,9.91088,7.29458C8.9942,8.54603,8.10567,9.84812,7.26775,11.1642C6.56671,12.2683,5.94671,13.3285,5.42463,14.3127C4.01858,16.9679,3.33379,19.0271,3.33379,20.6077C3.33028,21.8559,3.55231,23.0945,3.98921,24.2638C4.39583,25.3602,5.00139,26.3722,5.77545,27.2488C6.5141,28.0906,7.41481,28.7751,8.42378,29.2613C10.4746,30.2443,12.8605,30.2443,14.9113,29.2613C15.9203,28.7751,16.8209,28.0906,17.5596,27.2488C18.3336,26.3721,18.9392,25.3602,19.3459,24.2638C19.7825,23.0944,20.0042,21.8559,20.0005,20.6077C20.0005,19.0281,19.3175,16.9692,17.9111,14.3129C17.3903,13.3304,16.7692,12.2713,16.0671,11.1644C15.2402,9.86291,14.3507,8.56021,13.4248,7.29396C13.1363,6.9002,12.8513,6.51875,12.5525,6.12625C12.4992,6.05562,12.4484,5.99,12.4009,5.92875L12.363,5.87979L12.3569,5.87208L12.3069,5.80959L12.2165,5.69417L11.6673,4.9998L11.1173,5.69354ZM5.00046,20.7435C5.00046,16.5527,8.46609,18.674,11.6671,20.7435C13.0925,21.6658,14.5677,20.9444,15.7648,20.2227C16.0403,20.0412,18.333,18.4131,18.333,20.7435C18.333,24.9369,15.3488,28.3329,11.6663,28.3329C7.98379,28.3329,5.00046,24.9369,5.00046,20.7435Z" fill="#D0E4FF" fill-opacity="1"/></g></svg>