<svg xmlns="http://www.w3.org/2000/svg" xmlns:xlink="http://www.w3.org/1999/xlink" fill="none" version="1.1" width="40" height="40" viewBox="0 0 40 40"><defs><clipPath id="master_svg0_1010_027506"><rect x="0" y="0" width="40" height="40" rx="0"/></clipPath></defs><g clip-path="url(#master_svg0_1010_027506)"><g style="opacity:0.5;"><path d="M24.1663078125,28.3333C24.1663078125,31.0948,21.9278078125,33.3333,19.1663078125,33.3333C16.4049078125,33.3333,14.1663078125,31.0948,14.1663078125,28.3333L17.4997078125,28.3333C17.4997078125,29.2538,18.2459078125,30,19.1663078125,30C20.0868078125,30,20.8330078125,29.2538,20.8330078125,28.3333C20.8330078125,27.4129,20.0868078125,26.6667,19.1663078125,26.6667L3.3330078125,26.6667L3.3330078125,23.3333L19.1663078125,23.3333C21.9244078125,23.3415,24.1582078125,25.5753,24.1663078125,28.3333ZM31.6663078125,10.83333C31.6663078125,7.61167,29.0547078125,5,25.8330078125,5C22.6113078125,5,19.9997078125,7.61167,19.9997078125,10.83333L23.3330078125,10.83333C23.3330078125,9.45262,24.4523078125,8.33333,25.8330078125,8.33333C27.2137078125,8.33333,28.3330078125,9.45262,28.3330078125,10.83333C28.3330078125,12.21405,27.2137078125,13.33333,25.8330078125,13.33333L3.3330078125,13.33333L3.3330078125,16.6667L25.8330078125,16.6667C29.0532078125,16.6631,31.6628078125,14.05352,31.6663078125,10.83333ZM30.8330078125,18.3333L3.3330078125,18.3333L3.3330078125,21.6667L30.8330078125,21.6667C32.213707812500004,21.6667,33.3330078125,22.786,33.3330078125,24.1667C33.3330078125,25.5474,32.213707812500004,26.6667,30.8330078125,26.6667L30.8330078125,30C34.0547078125,30,36.6663078125,27.3883,36.6663078125,24.1667C36.6663078125,20.945,34.0547078125,18.3333,30.8330078125,18.3333Z" fill="#002C33" fill-opacity="1"/></g></g></svg>