<svg xmlns="http://www.w3.org/2000/svg" xmlns:xlink="http://www.w3.org/1999/xlink" fill="none" version="1.1" width="16" height="16" viewBox="0 0 16 16"><g><path d="M0.664863,12.5643C0.681895,7.29586,2.65123,4.98327,5.23618,3.72988C8.47082,2.15758,11.5542,2.30159,14.1828,0.423123C15.7741,-0.713984,15.9551,0.774076,15.9658,1.01728C16.2741,4.74837,14.4792,8.34019,11.3125,10.3295C7.4228,12.7723,2.76522,10.4063,0.614807,15.8529C0.599303,15.8928,0.564231,15.9219,0.522139,15.9297L0.144024,15.9979C0.0780738,16.0102,0.0148542,15.966,0.00344539,15.8998C-0.00113763,15.8805,-0.00113763,15.8604,0.00344539,15.8411C0.746967,13.3728,2.05635,11.1128,3.82708,9.24149C5.60149,7.42132,7.65007,5.8912,9.89805,4.70696C9.97938,4.65569,10.0057,4.54921,9.9577,4.46587C9.91599,4.39032,9.82401,4.35855,9.74467,4.39227C7.93203,5.13679,6.23801,6.14303,4.71641,7.379C3.02863,8.82038,1.6466,10.5861,0.652056,12.5717L0.664863,12.5643Z" fill="#F7C212" fill-opacity="1"/></g></svg>